<svg xmlns="http://www.w3.org/2000/svg" xmlns:xlink="http://www.w3.org/1999/xlink" xmlns:lucid="lucid" width="2140" height="1337"><g transform="translate(136.4786929805996 -60)" lucid:page-tab-id="HWEp-vi-RSFO"><path d="M-500 0h2500v1500H-500z" fill="#fff"/><path d="M507.15 88c0-4.42 3.58-8 8-8h836.75c4.4 0 8 3.58 8 8v25.16c0 4.4-3.6 8-8 8H515.15c-4.42 0-8-3.6-8-8z" stroke="#000" stroke-opacity="0" stroke-width="2" fill="#fff" fill-opacity="0"/><use xlink:href="#a" transform="matrix(1,0,0,1,511.1465527853429,84) translate(195.60074074074075 23.657777777777778)"/><use xlink:href="#b" transform="matrix(1,0,0,1,511.1465527853429,84) translate(322.1958024691358 23.657777777777778)"/><use xlink:href="#c" transform="matrix(1,0,0,1,511.1465527853429,84) translate(399.33283950617283 23.657777777777778)"/><use xlink:href="#d" transform="matrix(1,0,0,1,511.1465527853429,84) translate(518.5711111111111 23.657777777777778)"/><use xlink:href="#e" transform="matrix(1,0,0,1,511.1465527853429,84) translate(563.585925925926 23.657777777777778)"/><path d="M783.63 119.8H1093M783.65 119.8h-1.02M1092.96 119.8h1.03" stroke="#a9afb8" stroke-width="2" fill="none"/><path d="M507.15 129.16c0-4.42 3.58-8 8-8h837.7c4.42 0 8 3.58 8 8V132c0 4.42-3.58 8-8 8h-837.7c-4.42 0-8-3.58-8-8z" stroke="#000" stroke-opacity="0" stroke-width="2" fill="#fff" fill-opacity="0"/><use xlink:href="#f" transform="matrix(1,0,0,1,511.14655278534326,125.15522395689881) translate(296.5676646090535 14.917037037037037)"/><use xlink:href="#g" transform="matrix(1,0,0,1,511.14655278534326,125.15522395689881) translate(371.1795987654321 14.917037037037037)"/><use xlink:href="#h" transform="matrix(1,0,0,1,511.14655278534326,125.15522395689881) translate(432.279804526749 14.917037037037037)"/><use xlink:href="#i" transform="matrix(1,0,0,1,511.14655278534326,125.15522395689881) translate(444.7292901234568 14.917037037037037)"/><use xlink:href="#j" transform="matrix(1,0,0,1,511.14655278534326,125.15522395689881) translate(496.5667386831276 14.917037037037037)"/><use xlink:href="#k" transform="matrix(1,0,0,1,511.14655278534326,125.15522395689881) translate(522.0605658436214 14.917037037037037)"/><path d="M-116.48 542.5h360v285h-360z" stroke="#333" stroke-width="2" fill="#fff"/><path d="M-116.48 580.1h360m-360 102.3h360" stroke="#333" stroke-width="2" fill="none"/><use xlink:href="#l" transform="matrix(1,0,0,1,-108.47869298059959,550.5) translate(139.55 14.6)"/><use xlink:href="#m" transform="matrix(1,0,0,1,-104.47869298059959,588.1) translate(105.85 25.5)"/><use xlink:href="#n" transform="matrix(1,0,0,1,-104.47869298059959,588.1) translate(183.25 25.5)"/><use xlink:href="#o" transform="matrix(1,0,0,1,-104.47869298059959,588.1) translate(102.375 47.1)"/><use xlink:href="#n" transform="matrix(1,0,0,1,-104.47869298059959,588.1) translate(186.72500000000002 47.1)"/><use xlink:href="#p" transform="matrix(1,0,0,1,-104.47869298059959,588.1) translate(102.375 68.7)"/><use xlink:href="#q" transform="matrix(1,0,0,1,-104.47869298059959,588.1) translate(186.72500000000002 68.7)"/><use xlink:href="#r" transform="matrix(1,0,0,1,-104.47869298059959,690.4) translate(131.825 25.39999999999999)"/><use xlink:href="#s" transform="matrix(1,0,0,1,-104.47869298059959,690.4) translate(93.2 46.99999999999999)"/><use xlink:href="#t" transform="matrix(1,0,0,1,-104.47869298059959,690.4) translate(84.25000000000001 68.6)"/><use xlink:href="#u" transform="matrix(1,0,0,1,-104.47869298059959,690.4) translate(75.775 90.20000000000002)"/><use xlink:href="#v" transform="matrix(1,0,0,1,-104.47869298059959,690.4) translate(76.35000000000002 111.80000000000001)"/><path d="M245.02 685h5.3m5.28 0h10.6m5.28 0h10.58m5.3 0h10.58m5.3 0h10.57m5.3 0h10.6m5.28 0h5.3l.17.07.07.18.07.18.17.07h5.3m5.28 0h10.6m5.28 0h10.58m5.3 0h10.58m5.3 0h10.58m5.3 0h5.28" stroke="#333" fill="none"/><path d="M245.03 685.5h-.5v-1h.5z" fill="#333"/><path d="M434.9 685.5l-14.26 4.64v-9.28z" stroke="#333" fill="#333"/><path d="M437.52 576h360v219h-360z" stroke="#333" stroke-width="2" fill="#fff"/><path d="M437.52 635.2h360" stroke="#333" stroke-width="2" fill="none"/><use xlink:href="#w" transform="matrix(1,0,0,1,445.5213070194004,584) translate(119.07499999999999 14.799999999999999)"/><use xlink:href="#x" transform="matrix(1,0,0,1,445.5213070194004,584) translate(105.625 36.4)"/><use xlink:href="#y" transform="matrix(1,0,0,1,449.5213070194004,643.2) translate(72.75000000000001 65.3)"/><use xlink:href="#z" transform="matrix(1,0,0,1,449.5213070194004,643.2) translate(168 86.9)"/><path d="M814.9 685.5h5m5.02 0h10m5 0h10.02m5 0h10.02m5 0H880m5 0h10m5.02 0h10m5.02 0h5l.35.15.15.35.15.35.35.15h5.04m5.04 0h10.1m5.03 0h10.08m5.05 0h10.1m5.03 0h10.08m5.04 0h10.1m5.03 0h10.08m5.05 0h10.1m5.03 0h5.04" stroke="#333" fill="none"/><path d="M800.14 685.5l14.27-4.64v9.28z" stroke="#333" fill="#333"/><path d="M1042.52 687h-.5v-1h.5z" fill="#333"/><path d="M1043.52 576h360v221h-360z" stroke="#333" stroke-width="2" fill="#fff"/><path d="M1043.52 613.6h360m-360 102.3h360" stroke="#333" stroke-width="2" fill="none"/><use xlink:href="#A" transform="matrix(1,0,0,1,1051.5213070194004,584) translate(126.65 14.6)"/><use xlink:href="#B" transform="matrix(1,0,0,1,1055.5213070194004,621.6) translate(134.3 25.5)"/><use xlink:href="#C" transform="matrix(1,0,0,1,1055.5213070194004,621.6) translate(130.825 47.1)"/><use xlink:href="#z" transform="matrix(1,0,0,1,1055.5213070194004,621.6) translate(168 68.7)"/><use xlink:href="#D" transform="matrix(1,0,0,1,1055.5213070194004,723.9) translate(55.125 25.299999999999997)"/><use xlink:href="#E" transform="matrix(1,0,0,1,1055.5213070194004,723.9) translate(78.92500000000003 46.9)"/><path d="M1623.52 993h360v264h-360z" stroke="#333" stroke-width="2" fill="#fff"/><path d="M1623.52 1030.6h360m-360 123.9h360" stroke="#333" stroke-width="2" fill="none"/><use xlink:href="#F" transform="matrix(1,0,0,1,1631.5213070194004,1000.9999999999998) translate(144.025 14.6)"/><use xlink:href="#G" transform="matrix(1,0,0,1,1635.5213070194004,1038.5999999999997) translate(60.375000000000014 25.19999999999999)"/><use xlink:href="#H" transform="matrix(1,0,0,1,1635.5213070194004,1038.5999999999997) translate(114.3 46.79999999999999)"/><use xlink:href="#I" transform="matrix(1,0,0,1,1635.5213070194004,1038.5999999999997) translate(122.25 68.39999999999999)"/><use xlink:href="#J" transform="matrix(1,0,0,1,1635.5213070194004,1038.5999999999997) translate(106.1 90)"/><use xlink:href="#K" transform="matrix(1,0,0,1,1635.5213070194004,1162.4999999999998) translate(87.67500000000001 25.5)"/><use xlink:href="#L" transform="matrix(1,0,0,1,1635.5213070194004,1162.4999999999998) translate(71.775 47.1)"/><use xlink:href="#M" transform="matrix(1,0,0,1,1635.5213070194004,1162.4999999999998) translate(23.30000000000001 68.7)"/><path d="M1803.52 835.38v5.2m0 5.2v10.42m0 5.2v10.4m0 5.2v10.42m0 5.2v10.4m0 5.22v10.4m0 5.2v10.42m0 5.2v10.4m0 5.2v10.42m0 5.2v10.4m0 5.22v5.2" stroke="#333" fill="none"/><path d="M1803.52 820.62l4.64 14.26h-9.27z" stroke="#333" fill="#333"/><path d="M1804.02 992h-1v-.5h1z" fill="#333"/><path d="M1037.5 993h360v264h-360z" stroke="#333" stroke-width="2" fill="#fff"/><path d="M1037.5 1030.6h360m-360 167.1h360" stroke="#333" stroke-width="2" fill="none"/><use xlink:href="#N" transform="matrix(1,0,0,1,1045.5149816295798,1000.9999999999998) translate(136.025 14.6)"/><use xlink:href="#B" transform="matrix(1,0,0,1,1049.5149816295798,1038.5999999999997) translate(134.3 25.6)"/><use xlink:href="#C" transform="matrix(1,0,0,1,1049.5149816295798,1038.5999999999997) translate(130.825 47.2)"/><use xlink:href="#O" transform="matrix(1,0,0,1,1049.5149816295798,1038.5999999999997) translate(115.85 68.80000000000001)"/><use xlink:href="#P" transform="matrix(1,0,0,1,1049.5149816295798,1038.5999999999997) translate(137.3 90.40000000000002)"/><use xlink:href="#Q" transform="matrix(1,0,0,1,1049.5149816295798,1038.5999999999997) translate(126.8 112.00000000000001)"/><use xlink:href="#R" transform="matrix(1,0,0,1,1049.5149816295798,1038.5999999999997) translate(119.82499999999999 133.6)"/><g><use xlink:href="#S" transform="matrix(1,0,0,1,1049.5149816295798,1205.6999999999996) translate(82.17500000000001 25.6)"/></g><path d="M1622.02 1125h-223" stroke="#333" fill="none"/><path d="M1622.52 1125.5h-.5v-1h.5zM1399.03 1125.5h-.52v-1h.53z" fill="#333"/><path d="M1623.52 555h360v263h-360z" stroke="#333" stroke-width="2" fill="#fff"/><path d="M1623.52 614.2h360" stroke="#333" stroke-width="2" fill="none"/><g><use xlink:href="#w" transform="matrix(1,0,0,1,1631.5213070194004,563) translate(119.07499999999999 14.799999999999999)"/><use xlink:href="#T" transform="matrix(1,0,0,1,1631.5213070194004,563) translate(98.175 36.4)"/></g><g><use xlink:href="#U" transform="matrix(1,0,0,1,1635.5213070194004,622.2) translate(43.22500000000002 65.19999999999999)"/><use xlink:href="#V" transform="matrix(1,0,0,1,1635.5213070194004,622.2) translate(44.82500000000002 86.8)"/><use xlink:href="#W" transform="matrix(1,0,0,1,1635.5213070194004,622.2) translate(88.67500000000001 108.4)"/><use xlink:href="#X" transform="matrix(1,0,0,1,1635.5213070194004,622.2) translate(87.65 130)"/></g><path d="M1405.02 686.5h5.16m5.15 0h10.32m5.16 0h10.32m5.16 0h10.3m5.17 0h10.3m5.17 0h10.3m5.17 0h10.3m5.16 0h10.3m5.17 0h10.3m5.17 0h10.3m5.17 0h10.3m5.17 0h10.3m5.17 0h10.32m5.16 0h5.16" stroke="#333" fill="none"/><path d="M1405.03 687h-.5v-1h.5z" fill="#333"/><path d="M1620.9 686.5l-14.26 4.64v-9.28z" stroke="#333" fill="#333"/><path d="M1223.52 798.5v193" stroke="#333" fill="none"/><path d="M1224.02 798.5h-1v-.5h1zM1224.02 992h-1v-.5h1z" fill="#333"/><path d="M63.52 829v550c0 6.63 5.37 12 12 12h1716c6.63 0 12-5.37 12-12v-120.5" stroke="#333" fill="none"/><path d="M64.02 829h-1v-.5h1zM1804.02 1258.5h-1v-.5h1z" fill="#333"/><path d="M1043.52 220h360v263h-360z" stroke="#333" stroke-width="2" fill="#fff"/><path d="M1043.52 279.2h360" stroke="#333" stroke-width="2" fill="none"/><g><use xlink:href="#w" transform="matrix(1,0,0,1,1051.5213070194004,228) translate(119.07499999999999 14.799999999999999)"/><use xlink:href="#Y" transform="matrix(1,0,0,1,1051.5213070194004,228) translate(140.075 36.4)"/></g><g><use xlink:href="#Z" transform="matrix(1,0,0,1,1055.5213070194004,287.2) translate(104.875 65.19999999999999)"/><use xlink:href="#aa" transform="matrix(1,0,0,1,1055.5213070194004,287.2) translate(105.375 86.8)"/><use xlink:href="#ab" transform="matrix(1,0,0,1,1055.5213070194004,287.2) translate(74.9 108.4)"/><use xlink:href="#ac" transform="matrix(1,0,0,1,1055.5213070194004,287.2) translate(137.1 130)"/></g><path d="M617.52 574.5v-209c0-6.62 5.37-12 12-12h396.62" stroke="#333" fill="none"/><path d="M618.02 575h-1v-.5h1z" fill="#333"/><path d="M1040.9 353.5l-14.26 4.64v-9.27z" stroke="#333" fill="#fff"/><path d="M1803.52 553.5v-195c0-6.63-5.37-12-12-12h-370.6" stroke="#333" fill="none"/><path d="M1804.02 554h-1v-.5h1z" fill="#333"/><path d="M1406.14 346.5l14.27-4.64v9.27z" stroke="#333" fill="#fff"/><defs><path fill="#a9afb8" d="M24-248c120-7 223 5 221 122C244-46 201 0 124 0H24v-248zM76-40c74 7 117-18 117-86 0-67-45-88-117-82v168" id="ad"/><path fill="#a9afb8" d="M25-224v-37h50v37H25zM25 0v-190h50V0H25" id="ae"/><path fill="#a9afb8" d="M133-34C117-15 103 5 69 4 32 3 11-16 11-54c-1-60 55-63 116-61 1-26-3-47-28-47-18 1-26 9-28 27l-52-2c7-38 36-58 82-57s74 22 75 68l1 82c-1 14 12 18 25 15v27c-30 8-71 5-69-32zm-48 3c29 0 43-24 42-57-32 0-66-3-65 30 0 17 8 27 23 27" id="af"/><path fill="#a9afb8" d="M195-6C206 82 75 100 31 46c-4-6-6-13-8-21l49-6c3 16 16 24 34 25 40 0 42-37 40-79-11 22-30 35-61 35-53 0-70-43-70-97 0-56 18-96 73-97 30 0 46 14 59 34l2-30h47zm-90-29c32 0 41-27 41-63 0-35-9-62-40-62-32 0-39 29-40 63 0 36 9 62 39 62" id="ag"/><path fill="#a9afb8" d="M135-150c-39-12-60 13-60 57V0H25l-1-190h47c2 13-1 29 3 40 6-28 27-53 61-41v41" id="ah"/><path fill="#a9afb8" d="M220-157c-53 9-28 100-34 157h-49v-107c1-27-5-49-29-50C55-147 81-57 75 0H25l-1-190h47c2 12-1 28 3 38 10-53 101-56 108 0 13-22 24-43 59-42 82 1 51 116 57 194h-49v-107c-1-25-5-48-29-50" id="ai"/><g id="a"><use transform="matrix(0.0728395061728395,0,0,0.0728395061728395,0,0)" xlink:href="#ad"/><use transform="matrix(0.0728395061728395,0,0,0.0728395061728395,18.86543209876543,0)" xlink:href="#ae"/><use transform="matrix(0.0728395061728395,0,0,0.0728395061728395,26.14938271604938,0)" xlink:href="#af"/><use transform="matrix(0.0728395061728395,0,0,0.0728395061728395,40.717283950617286,0)" xlink:href="#ag"/><use transform="matrix(0.0728395061728395,0,0,0.0728395061728395,56.66913580246913,0)" xlink:href="#ah"/><use transform="matrix(0.0728395061728395,0,0,0.0728395061728395,66.86666666666666,0)" xlink:href="#af"/><use transform="matrix(0.0728395061728395,0,0,0.0728395061728395,81.43456790123457,0)" xlink:href="#ai"/><use transform="matrix(0.0728395061728395,0,0,0.0728395061728395,104.7432098765432,0)" xlink:href="#af"/></g><path fill="#a9afb8" d="M67-125c0 53 21 87 73 88 37 1 54-22 65-47l45 17C233-25 199 4 140 4 58 4 20-42 15-125 8-235 124-281 211-232c18 10 29 29 36 50l-46 12c-8-25-30-41-62-41-52 0-71 34-72 86" id="aj"/><path fill="#a9afb8" d="M25 0v-261h50V0H25" id="ak"/><path fill="#a9afb8" d="M137-138c1-29-70-34-71-4 15 46 118 7 119 86 1 83-164 76-172 9l43-7c4 19 20 25 44 25 33 8 57-30 24-41C81-84 22-81 20-136c-2-80 154-74 161-7" id="al"/><path fill="#a9afb8" d="M185-48c-13 30-37 53-82 52C43 2 14-33 14-96s30-98 90-98c62 0 83 45 84 108H66c0 31 8 55 39 56 18 0 30-7 34-22zm-45-69c5-46-57-63-70-21-2 6-4 13-4 21h74" id="am"/><g id="b"><use transform="matrix(0.0728395061728395,0,0,0.0728395061728395,0,0)" xlink:href="#aj"/><use transform="matrix(0.0728395061728395,0,0,0.0728395061728395,18.86543209876543,0)" xlink:href="#ak"/><use transform="matrix(0.0728395061728395,0,0,0.0728395061728395,26.14938271604938,0)" xlink:href="#af"/><use transform="matrix(0.0728395061728395,0,0,0.0728395061728395,40.717283950617286,0)" xlink:href="#al"/><use transform="matrix(0.0728395061728395,0,0,0.0728395061728395,55.28518518518518,0)" xlink:href="#am"/></g><path fill="#a9afb8" d="M24-248c93 1 206-16 204 79-1 75-69 88-152 82V0H24v-248zm52 121c47 0 100 7 100-41 0-47-54-39-100-39v80" id="an"/><path fill="#a9afb8" d="M110-194c64 0 96 36 96 99 0 64-35 99-97 99-61 0-95-36-95-99 0-62 34-99 96-99zm-1 164c35 0 45-28 45-65 0-40-10-65-43-65-34 0-45 26-45 65 0 36 10 65 43 65" id="ao"/><path fill="#a9afb8" d="M123 10C108 53 80 86 19 72V37c35 8 53-11 59-39L3-190h52l48 148c12-52 28-100 44-148h51" id="ap"/><path fill="#a9afb8" d="M190-63c-7 42-38 67-86 67-59 0-84-38-90-98-12-110 154-137 174-36l-49 2c-2-19-15-32-35-32-30 0-35 28-38 64-6 74 65 87 74 30" id="aq"/><path fill="#a9afb8" d="M115-3C79 11 28 4 28-45v-112H4v-33h27l15-45h31v45h36v33H77v99c-1 23 16 31 38 25v30" id="ar"/><g id="c"><use transform="matrix(0.0728395061728395,0,0,0.0728395061728395,0,0)" xlink:href="#an"/><use transform="matrix(0.0728395061728395,0,0,0.0728395061728395,17.48148148148148,0)" xlink:href="#ah"/><use transform="matrix(0.0728395061728395,0,0,0.0728395061728395,27.679012345679013,0)" xlink:href="#ao"/><use transform="matrix(0.0728395061728395,0,0,0.0728395061728395,43.63086419753086,0)" xlink:href="#ap"/><use transform="matrix(0.0728395061728395,0,0,0.0728395061728395,58.19876543209875,0)" xlink:href="#am"/><use transform="matrix(0.0728395061728395,0,0,0.0728395061728395,72.76666666666667,0)" xlink:href="#aq"/><use transform="matrix(0.0728395061728395,0,0,0.0728395061728395,87.33456790123456,0)" xlink:href="#ar"/><use transform="matrix(0.0728395061728395,0,0,0.0728395061728395,96.00246913580247,0)" xlink:href="#ao"/></g><path fill="#a9afb8" d="M20 75v-336h95v34H67V41h48v34H20" id="as"/><path fill="#a9afb8" d="M230 0l2-204L168 0h-37L68-204 70 0H24v-248h70l56 185 57-185h69V0h-46" id="at"/><g id="d"><use transform="matrix(0.0728395061728395,0,0,0.0728395061728395,0,0)" xlink:href="#as"/><use transform="matrix(0.0728395061728395,0,0,0.0728395061728395,8.667901234567902,0)" xlink:href="#at"/><use transform="matrix(0.0728395061728395,0,0,0.0728395061728395,30.446913580246914,0)" xlink:href="#ae"/></g><path fill="#a9afb8" d="M136-208V0H84v-208H4v-40h212v40h-80" id="au"/><path fill="#a9afb8" d="M135-194c87-1 58 113 63 194h-50c-7-57 23-157-34-157-59 0-34 97-39 157H25l-1-190h47c2 12-1 28 3 38 12-26 28-41 61-42" id="av"/><path fill="#a9afb8" d="M88-194c31-1 46 15 58 34l-1-101h50l1 261h-48c-2-10 0-23-3-31C134-8 116 4 84 4 32 4 16-41 15-95c0-56 19-97 73-99zm17 164c33 0 40-30 41-66 1-37-9-64-41-64s-38 30-39 65c0 43 13 65 39 65" id="aw"/><path fill="#a9afb8" d="M4 75V41h49v-268H4v-34h96V75H4" id="ax"/><g id="e"><use transform="matrix(0.0728395061728395,0,0,0.0728395061728395,0,0)" xlink:href="#au"/><use transform="matrix(0.0728395061728395,0,0,0.0728395061728395,15.441975308641974,0)" xlink:href="#ae"/><use transform="matrix(0.0728395061728395,0,0,0.0728395061728395,22.725925925925925,0)" xlink:href="#am"/><use transform="matrix(0.0728395061728395,0,0,0.0728395061728395,37.29382716049383,0)" xlink:href="#av"/><use transform="matrix(0.0728395061728395,0,0,0.0728395061728395,53.245679012345676,0)" xlink:href="#aw"/><use transform="matrix(0.0728395061728395,0,0,0.0728395061728395,69.19753086419753,0)" xlink:href="#af"/><use transform="matrix(0.0728395061728395,0,0,0.0728395061728395,83.76543209876543,0)" xlink:href="#ax"/></g><path fill="#a9afb8" d="M212-179c-10-28-35-45-73-45-59 0-87 40-87 99 0 60 29 101 89 101 43 0 62-24 78-52l27 14C228-24 195 4 139 4 59 4 22-46 18-125c-6-104 99-153 187-111 19 9 31 26 39 46" id="ay"/><path fill="#a9afb8" d="M114-163C36-179 61-72 57 0H25l-1-190h30c1 12-1 29 2 39 6-27 23-49 58-41v29" id="az"/><path fill="#a9afb8" d="M24-231v-30h32v30H24zM24 0v-190h32V0H24" id="aA"/><path fill="#a9afb8" d="M135-143c-3-34-86-38-87 0 15 53 115 12 119 90S17 21 10-45l28-5c4 36 97 45 98 0-10-56-113-15-118-90-4-57 82-63 122-42 12 7 21 19 24 35" id="aB"/><path fill="#a9afb8" d="M59-47c-2 24 18 29 38 22v24C64 9 27 4 27-40v-127H5v-23h24l9-43h21v43h35v23H59v120" id="aC"/><path fill="#a9afb8" d="M100-194c62-1 85 37 85 99 1 63-27 99-86 99S16-35 15-95c0-66 28-99 85-99zM99-20c44 1 53-31 53-75 0-43-8-75-51-75s-53 32-53 75 10 74 51 75" id="aD"/><path fill="#a9afb8" d="M115-194c55 1 70 41 70 98S169 2 115 4C84 4 66-9 55-30l1 105H24l-1-265h31l2 30c10-21 28-34 59-34zm-8 174c40 0 45-34 45-75s-6-73-45-74c-42 0-51 32-51 76 0 43 10 73 51 73" id="aE"/><path fill="#a9afb8" d="M106-169C34-169 62-67 57 0H25v-261h32l-1 103c12-21 28-36 61-36 89 0 53 116 60 194h-32v-121c2-32-8-49-39-48" id="aF"/><path fill="#a9afb8" d="M100-194c63 0 86 42 84 106H49c0 40 14 67 53 68 26 1 43-12 49-29l28 8c-11 28-37 45-77 45C44 4 14-33 15-96c1-61 26-98 85-98zm52 81c6-60-76-77-97-28-3 7-6 17-6 28h103" id="aG"/><g id="f"><use transform="matrix(0.04248971193415638,0,0,0.04248971193415638,0,0)" xlink:href="#ay"/><use transform="matrix(0.04248971193415638,0,0,0.04248971193415638,11.004835390946502,0)" xlink:href="#az"/><use transform="matrix(0.04248971193415638,0,0,0.04248971193415638,16.06111111111111,0)" xlink:href="#aA"/><use transform="matrix(0.04248971193415638,0,0,0.04248971193415638,19.417798353909465,0)" xlink:href="#aB"/><use transform="matrix(0.04248971193415638,0,0,0.04248971193415638,27.065946502057614,0)" xlink:href="#aC"/><use transform="matrix(0.04248971193415638,0,0,0.04248971193415638,31.314917695473248,0)" xlink:href="#aD"/><use transform="matrix(0.04248971193415638,0,0,0.04248971193415638,39.812860082304525,0)" xlink:href="#aE"/><use transform="matrix(0.04248971193415638,0,0,0.04248971193415638,48.3108024691358,0)" xlink:href="#aF"/><use transform="matrix(0.04248971193415638,0,0,0.04248971193415638,56.80874485596708,0)" xlink:href="#aG"/><use transform="matrix(0.04248971193415638,0,0,0.04248971193415638,65.30668724279835,0)" xlink:href="#az"/></g><path fill="#a9afb8" d="M197 0v-115H63V0H30v-248h33v105h134v-105h34V0h-34" id="aH"/><path fill="#a9afb8" d="M24 0v-261h32V0H24" id="aI"/><path fill="#a9afb8" d="M177-190C167-65 218 103 67 71c-23-6-38-20-44-43l32-5c15 47 100 32 89-28v-30C133-14 115 1 83 1 29 1 15-40 15-95c0-56 16-97 71-98 29-1 48 16 59 35 1-10 0-23 2-32h30zM94-22c36 0 50-32 50-73 0-42-14-75-50-75-39 0-46 34-46 75s6 73 46 73" id="aJ"/><path fill="#a9afb8" d="M84 4C-5 8 30-112 23-190h32v120c0 31 7 50 39 49 72-2 45-101 50-169h31l1 190h-30c-1-10 1-25-2-33-11 22-28 36-60 37" id="aK"/><path fill="#a9afb8" d="M34 0v-190h32V0H34zM24-211c8-23 27-35 38-54h36v5l-58 49H24" id="aL"/><path fill="#a9afb8" d="M117-194c89-4 53 116 60 194h-32v-121c0-31-8-49-39-48C34-167 62-67 57 0H25l-1-190h30c1 10-1 24 2 32 11-22 29-35 61-36" id="aM"/><g id="g"><use transform="matrix(0.04248971193415638,0,0,0.04248971193415638,0,0)" xlink:href="#aH"/><use transform="matrix(0.04248971193415638,0,0,0.04248971193415638,11.004835390946502,0)" xlink:href="#aD"/><use transform="matrix(0.04248971193415638,0,0,0.04248971193415638,19.502777777777776,0)" xlink:href="#aI"/><use transform="matrix(0.04248971193415638,0,0,0.04248971193415638,22.85946502057613,0)" xlink:href="#aJ"/><use transform="matrix(0.04248971193415638,0,0,0.04248971193415638,31.357407407407408,0)" xlink:href="#aK"/><use transform="matrix(0.04248971193415638,0,0,0.04248971193415638,39.855349794238684,0)" xlink:href="#aL"/><use transform="matrix(0.04248971193415638,0,0,0.04248971193415638,44.10432098765432,0)" xlink:href="#aM"/></g><path fill="#a9afb8" d="M32 76v-337h29V76H32" id="aN"/><use transform="matrix(0.04248971193415638,0,0,0.04248971193415638,0,0)" xlink:href="#aN" id="h"/><path fill="#a9afb8" d="M205 0l-28-72H64L36 0H1l101-248h38L239 0h-34zm-38-99l-47-123c-12 45-31 82-46 123h93" id="aO"/><g id="i"><use transform="matrix(0.04248971193415638,0,0,0.04248971193415638,0,0)" xlink:href="#aO"/><use transform="matrix(0.04248971193415638,0,0,0.04248971193415638,10.19753086419753,0)" xlink:href="#aK"/><use transform="matrix(0.04248971193415638,0,0,0.04248971193415638,18.695473251028805,0)" xlink:href="#aJ"/><use transform="matrix(0.04248971193415638,0,0,0.04248971193415638,27.193415637860078,0)" xlink:href="#aK"/><use transform="matrix(0.04248971193415638,0,0,0.04248971193415638,35.691358024691354,0)" xlink:href="#aB"/><use transform="matrix(0.04248971193415638,0,0,0.04248971193415638,43.3395061728395,0)" xlink:href="#aC"/></g><path fill="#a9afb8" d="M27 0v-27h64v-190l-56 39v-29l58-41h29v221h61V0H27" id="aP"/><path fill="#a9afb8" d="M126-127c33 6 58 20 58 59 0 88-139 92-164 29-3-8-5-16-6-25l32-3c6 27 21 44 54 44 32 0 52-15 52-46 0-38-36-46-79-43v-28c39 1 72-4 72-42 0-27-17-43-46-43-28 0-47 15-49 41l-32-3c6-42 35-63 81-64 48-1 79 21 79 65 0 36-21 52-52 59" id="aQ"/><path fill="#a9afb8" d="M68-38c1 34 0 65-14 84H32c9-13 17-26 17-46H33v-38h35" id="aR"/><g id="j"><use transform="matrix(0.04248971193415638,0,0,0.04248971193415638,0,0)" xlink:href="#aP"/><use transform="matrix(0.04248971193415638,0,0,0.04248971193415638,8.497942386831275,0)" xlink:href="#aQ"/><use transform="matrix(0.04248971193415638,0,0,0.04248971193415638,16.99588477366255,0)" xlink:href="#aR"/></g><path fill="#a9afb8" d="M101-251c82-7 93 87 43 132L82-64C71-53 59-42 53-27h129V0H18c2-99 128-94 128-182 0-28-16-43-45-43s-46 15-49 41l-32-3c6-41 34-60 81-64" id="aS"/><path fill="#a9afb8" d="M101-251c68 0 85 55 85 127S166 4 100 4C33 4 14-52 14-124c0-73 17-127 87-127zm-1 229c47 0 54-49 54-102s-4-102-53-102c-51 0-55 48-55 102 0 53 5 102 54 102" id="aT"/><g id="k"><use transform="matrix(0.04248971193415638,0,0,0.04248971193415638,0,0)" xlink:href="#aS"/><use transform="matrix(0.04248971193415638,0,0,0.04248971193415638,8.497942386831275,0)" xlink:href="#aT"/><use transform="matrix(0.04248971193415638,0,0,0.04248971193415638,16.99588477366255,0)" xlink:href="#aS"/><use transform="matrix(0.04248971193415638,0,0,0.04248971193415638,25.493827160493822,0)" xlink:href="#aT"/></g><path fill="#333" d="M127-220V0H93v-220H8v-28h204v28h-85" id="aU"/><path fill="#333" d="M100-194c63 0 86 42 84 106H49c0 40 14 67 53 68 26 1 43-12 49-29l28 8c-11 28-37 45-77 45C44 4 14-33 15-96c1-61 26-98 85-98zm52 81c6-60-76-77-97-28-3 7-6 17-6 28h103" id="aV"/><path fill="#333" d="M117-194c89-4 53 116 60 194h-32v-121c0-31-8-49-39-48C34-167 62-67 57 0H25l-1-190h30c1 10-1 24 2 32 11-22 29-35 61-36" id="aW"/><path fill="#333" d="M85-194c31 0 48 13 60 33l-1-100h32l1 261h-30c-2-10 0-23-3-31C134-8 116 4 85 4 32 4 16-35 15-94c0-66 23-100 70-100zm9 24c-40 0-46 34-46 75 0 40 6 74 45 74 42 0 51-32 51-76 0-42-9-74-50-73" id="aX"/><path fill="#333" d="M114-163C36-179 61-72 57 0H25l-1-190h30c1 12-1 29 2 39 6-27 23-49 58-41v29" id="aY"/><path fill="#333" d="M100-194c62-1 85 37 85 99 1 63-27 99-86 99S16-35 15-95c0-66 28-99 85-99zM99-20c44 1 53-31 53-75 0-43-8-75-51-75s-53 32-53 75 10 74 51 75" id="aZ"/><g id="l"><use transform="matrix(0.05,0,0,0.05,0,0)" xlink:href="#aU"/><use transform="matrix(0.05,0,0,0.05,8.950000000000001,0)" xlink:href="#aV"/><use transform="matrix(0.05,0,0,0.05,18.950000000000003,0)" xlink:href="#aW"/><use transform="matrix(0.05,0,0,0.05,28.950000000000003,0)" xlink:href="#aX"/><use transform="matrix(0.05,0,0,0.05,38.95,0)" xlink:href="#aV"/><use transform="matrix(0.05,0,0,0.05,48.95,0)" xlink:href="#aY"/><use transform="matrix(0.05,0,0,0.05,54.900000000000006,0)" xlink:href="#aZ"/></g><path fill="#333" d="M118-107v75H92v-75H18v-26h74v-75h26v75h74v26h-74" id="ba"/><path fill="#333" d="M212-179c-10-28-35-45-73-45-59 0-87 40-87 99 0 60 29 101 89 101 43 0 62-24 78-52l27 14C228-24 195 4 139 4 59 4 22-46 18-125c-6-104 99-153 187-111 19 9 31 26 39 46" id="bb"/><path fill="#333" d="M24-231v-30h32v30H24zM24 0v-190h32V0H24" id="bc"/><path fill="#333" d="M177-190C167-65 218 103 67 71c-23-6-38-20-44-43l32-5c15 47 100 32 89-28v-30C133-14 115 1 83 1 29 1 15-40 15-95c0-56 16-97 71-98 29-1 48 16 59 35 1-10 0-23 2-32h30zM94-22c36 0 50-32 50-73 0-42-14-75-50-75-39 0-46 34-46 75s6 73 46 73" id="bd"/><path fill="#333" d="M33-154v-36h34v36H33zM33 0v-36h34V0H33" id="be"/><g id="m"><use transform="matrix(0.05,0,0,0.05,0,0)" xlink:href="#ba"/><use transform="matrix(0.05,0,0,0.05,10.5,0)" xlink:href="#bb"/><use transform="matrix(0.05,0,0,0.05,23.450000000000003,0)" xlink:href="#aZ"/><use transform="matrix(0.05,0,0,0.05,33.45,0)" xlink:href="#aX"/><use transform="matrix(0.05,0,0,0.05,43.45,0)" xlink:href="#bc"/><use transform="matrix(0.05,0,0,0.05,47.400000000000006,0)" xlink:href="#bd"/><use transform="matrix(0.05,0,0,0.05,57.400000000000006,0)" xlink:href="#aZ"/><use transform="matrix(0.05,0,0,0.05,67.4,0)" xlink:href="#be"/></g><path fill="#333" d="M185-189c-5-48-123-54-124 2 14 75 158 14 163 119 3 78-121 87-175 55-17-10-28-26-33-46l33-7c5 56 141 63 141-1 0-78-155-14-162-118-5-82 145-84 179-34 5 7 8 16 11 25" id="bf"/><path fill="#333" d="M59-47c-2 24 18 29 38 22v24C64 9 27 4 27-40v-127H5v-23h24l9-43h21v43h35v23H59v120" id="bg"/><g id="n"><use transform="matrix(0.05,0,0,0.05,0,0)" xlink:href="#bf"/><use transform="matrix(0.05,0,0,0.05,12,0)" xlink:href="#bg"/><use transform="matrix(0.05,0,0,0.05,17,0)" xlink:href="#aY"/><use transform="matrix(0.05,0,0,0.05,22.95,0)" xlink:href="#bc"/><use transform="matrix(0.05,0,0,0.05,26.899999999999995,0)" xlink:href="#aW"/><use transform="matrix(0.05,0,0,0.05,36.9,0)" xlink:href="#bd"/></g><path fill="#333" d="M190 0L58-211 59 0H30v-248h39L202-35l-2-213h31V0h-41" id="bh"/><path fill="#333" d="M210-169c-67 3-38 105-44 169h-31v-121c0-29-5-50-35-48C34-165 62-65 56 0H25l-1-190h30c1 10-1 24 2 32 10-44 99-50 107 0 11-21 27-35 58-36 85-2 47 119 55 194h-31v-121c0-29-5-49-35-48" id="bi"/><path fill="#333" d="M115-194c53 0 69 39 70 98 0 66-23 100-70 100C84 3 66-7 56-30L54 0H23l1-261h32v101c10-23 28-34 59-34zm-8 174c40 0 45-34 45-75 0-40-5-75-45-74-42 0-51 32-51 76 0 43 10 73 51 73" id="bj"/><g id="o"><use transform="matrix(0.05,0,0,0.05,0,0)" xlink:href="#ba"/><use transform="matrix(0.05,0,0,0.05,10.5,0)" xlink:href="#bh"/><use transform="matrix(0.05,0,0,0.05,23.450000000000003,0)" xlink:href="#aZ"/><use transform="matrix(0.05,0,0,0.05,33.45,0)" xlink:href="#bi"/><use transform="matrix(0.05,0,0,0.05,48.400000000000006,0)" xlink:href="#bj"/><use transform="matrix(0.05,0,0,0.05,58.400000000000006,0)" xlink:href="#aY"/><use transform="matrix(0.05,0,0,0.05,64.35000000000001,0)" xlink:href="#aV"/><use transform="matrix(0.05,0,0,0.05,74.35000000000001,0)" xlink:href="#be"/></g><path fill="#333" d="M205 0l-28-72H64L36 0H1l101-248h38L239 0h-34zm-38-99l-47-123c-12 45-31 82-46 123h93" id="bk"/><path fill="#333" d="M115-194c55 1 70 41 70 98S169 2 115 4C84 4 66-9 55-30l1 105H24l-1-265h31l2 30c10-21 28-34 59-34zm-8 174c40 0 45-34 45-75s-6-73-45-74c-42 0-51 32-51 76 0 43 10 73 51 73" id="bl"/><path fill="#333" d="M24 0v-261h32V0H24" id="bm"/><g id="p"><use transform="matrix(0.05,0,0,0.05,0,0)" xlink:href="#ba"/><use transform="matrix(0.05,0,0,0.05,10.5,0)" xlink:href="#bk"/><use transform="matrix(0.05,0,0,0.05,22.5,0)" xlink:href="#bl"/><use transform="matrix(0.05,0,0,0.05,32.5,0)" xlink:href="#aV"/><use transform="matrix(0.05,0,0,0.05,42.5,0)" xlink:href="#bm"/><use transform="matrix(0.05,0,0,0.05,46.45,0)" xlink:href="#bm"/><use transform="matrix(0.05,0,0,0.05,50.400000000000006,0)" xlink:href="#bc"/><use transform="matrix(0.05,0,0,0.05,54.35,0)" xlink:href="#aX"/><use transform="matrix(0.05,0,0,0.05,64.35000000000001,0)" xlink:href="#aZ"/><use transform="matrix(0.05,0,0,0.05,74.35000000000001,0)" xlink:href="#be"/></g><g id="q"><use transform="matrix(0.05,0,0,0.05,0,0)" xlink:href="#bf"/><use transform="matrix(0.05,0,0,0.05,12,0)" xlink:href="#bg"/><use transform="matrix(0.05,0,0,0.05,17,0)" xlink:href="#aY"/><use transform="matrix(0.05,0,0,0.05,22.95,0)" xlink:href="#bc"/><use transform="matrix(0.05,0,0,0.05,26.899999999999995,0)" xlink:href="#aW"/><use transform="matrix(0.05,0,0,0.05,36.9,0)" xlink:href="#bd"/></g><path fill="#333" d="M16-82v-28h88v28H16" id="bn"/><path fill="#333" d="M137 0h-34L2-248h35l83 218 83-218h36" id="bo"/><path fill="#333" d="M141-36C126-15 110 5 73 4 37 3 15-17 15-53c-1-64 63-63 125-63 3-35-9-54-41-54-24 1-41 7-42 31l-33-3c5-37 33-52 76-52 45 0 72 20 72 64v82c-1 20 7 32 28 27v20c-31 9-61-2-59-35zM48-53c0 20 12 33 32 33 41-3 63-29 60-74-43 2-92-5-92 41" id="bp"/><path fill="#333" d="M87 75C49 33 22-17 22-94c0-76 28-126 65-167h31c-38 41-64 92-64 168S80 34 118 75H87" id="bq"/><path fill="#333" d="M33-261c38 41 65 92 65 168S71 34 33 75H2C39 34 66-17 66-93S39-220 2-261h31" id="br"/><g id="r"><use transform="matrix(0.05,0,0,0.05,0,0)" xlink:href="#bn"/><use transform="matrix(0.05,0,0,0.05,5.95,0)" xlink:href="#bo"/><use transform="matrix(0.05,0,0,0.05,16.6,0)" xlink:href="#bp"/><use transform="matrix(0.05,0,0,0.05,26.6,0)" xlink:href="#bm"/><use transform="matrix(0.05,0,0,0.05,30.55,0)" xlink:href="#bc"/><use transform="matrix(0.05,0,0,0.05,34.5,0)" xlink:href="#aX"/><use transform="matrix(0.05,0,0,0.05,44.5,0)" xlink:href="#bp"/><use transform="matrix(0.05,0,0,0.05,54.5,0)" xlink:href="#aY"/><use transform="matrix(0.05,0,0,0.05,60.45,0)" xlink:href="#bq"/><use transform="matrix(0.05,0,0,0.05,66.4,0)" xlink:href="#br"/></g><path fill="#333" d="M233-177c-1 41-23 64-60 70L243 0h-38l-65-103H63V0H30v-248c88 3 205-21 203 71zM63-129c60-2 137 13 137-47 0-61-80-42-137-45v92" id="bs"/><path fill="#333" d="M9 0v-24l116-142H16v-24h144v24L44-24h123V0H9" id="bt"/><path fill="#333" d="M-5 72V49h209v23H-5" id="bu"/><path fill="#333" d="M30-248c87 1 191-15 191 75 0 78-77 80-158 76V0H30v-248zm33 125c57 0 124 11 124-50 0-59-68-47-124-48v98" id="bv"/><g id="s"><use transform="matrix(0.05,0,0,0.05,0,0)" xlink:href="#bn"/><use transform="matrix(0.05,0,0,0.05,5.95,0)" xlink:href="#bs"/><use transform="matrix(0.05,0,0,0.05,18.900000000000002,0)" xlink:href="#aV"/><use transform="matrix(0.05,0,0,0.05,28.900000000000002,0)" xlink:href="#bp"/><use transform="matrix(0.05,0,0,0.05,38.900000000000006,0)" xlink:href="#bm"/><use transform="matrix(0.05,0,0,0.05,42.85000000000001,0)" xlink:href="#bc"/><use transform="matrix(0.05,0,0,0.05,46.80000000000001,0)" xlink:href="#bt"/><use transform="matrix(0.05,0,0,0.05,55.80000000000001,0)" xlink:href="#bp"/><use transform="matrix(0.05,0,0,0.05,65.80000000000001,0)" xlink:href="#aY"/><use transform="matrix(0.05,0,0,0.05,71.75000000000001,0)" xlink:href="#bu"/><use transform="matrix(0.05,0,0,0.05,81.75000000000001,0)" xlink:href="#bv"/><use transform="matrix(0.05,0,0,0.05,93.75000000000001,0)" xlink:href="#aV"/><use transform="matrix(0.05,0,0,0.05,103.75,0)" xlink:href="#aX"/><use transform="matrix(0.05,0,0,0.05,113.75,0)" xlink:href="#bc"/><use transform="matrix(0.05,0,0,0.05,117.7,0)" xlink:href="#aX"/><use transform="matrix(0.05,0,0,0.05,127.7,0)" xlink:href="#aZ"/><use transform="matrix(0.05,0,0,0.05,137.70000000000002,0)" xlink:href="#bq"/><use transform="matrix(0.05,0,0,0.05,143.65,0)" xlink:href="#br"/></g><path fill="#333" d="M101-234c-31-9-42 10-38 44h38v23H63V0H32v-167H5v-23h27c-7-52 17-82 69-68v24" id="bw"/><g id="t"><use transform="matrix(0.05,0,0,0.05,0,0)" xlink:href="#bn"/><use transform="matrix(0.05,0,0,0.05,5.95,0)" xlink:href="#bb"/><use transform="matrix(0.05,0,0,0.05,18.900000000000002,0)" xlink:href="#aZ"/><use transform="matrix(0.05,0,0,0.05,28.900000000000002,0)" xlink:href="#bi"/><use transform="matrix(0.05,0,0,0.05,43.85,0)" xlink:href="#bw"/><use transform="matrix(0.05,0,0,0.05,48.85,0)" xlink:href="#bc"/><use transform="matrix(0.05,0,0,0.05,52.800000000000004,0)" xlink:href="#aY"/><use transform="matrix(0.05,0,0,0.05,58.75,0)" xlink:href="#bi"/><use transform="matrix(0.05,0,0,0.05,73.7,0)" xlink:href="#bp"/><use transform="matrix(0.05,0,0,0.05,83.7,0)" xlink:href="#aY"/><use transform="matrix(0.05,0,0,0.05,89.65,0)" xlink:href="#bu"/><use transform="matrix(0.05,0,0,0.05,99.65,0)" xlink:href="#bv"/><use transform="matrix(0.05,0,0,0.05,111.65,0)" xlink:href="#aV"/><use transform="matrix(0.05,0,0,0.05,121.65,0)" xlink:href="#aX"/><use transform="matrix(0.05,0,0,0.05,131.65,0)" xlink:href="#bc"/><use transform="matrix(0.05,0,0,0.05,135.6,0)" xlink:href="#aX"/><use transform="matrix(0.05,0,0,0.05,145.6,0)" xlink:href="#aZ"/><use transform="matrix(0.05,0,0,0.05,155.6,0)" xlink:href="#bq"/><use transform="matrix(0.05,0,0,0.05,161.54999999999998,0)" xlink:href="#br"/></g><path fill="#333" d="M33 0v-248h34V0H33" id="bx"/><path fill="#333" d="M135-143c-3-34-86-38-87 0 15 53 115 12 119 90S17 21 10-45l28-5c4 36 97 45 98 0-10-56-113-15-118-90-4-57 82-63 122-42 12 7 21 19 24 35" id="by"/><path fill="#333" d="M30-248c118-7 216 8 213 122C240-48 200 0 122 0H30v-248zM63-27c89 8 146-16 146-99s-60-101-146-95v194" id="bz"/><path fill="#333" d="M84 4C-5 8 30-112 23-190h32v120c0 31 7 50 39 49 72-2 45-101 50-169h31l1 190h-30c-1-10 1-25-2-33-11 22-28 36-60 37" id="bA"/><g id="u"><use transform="matrix(0.05,0,0,0.05,0,0)" xlink:href="#bn"/><use transform="matrix(0.05,0,0,0.05,5.95,0)" xlink:href="#bx"/><use transform="matrix(0.05,0,0,0.05,10.95,0)" xlink:href="#aW"/><use transform="matrix(0.05,0,0,0.05,20.95,0)" xlink:href="#bd"/><use transform="matrix(0.05,0,0,0.05,30.950000000000003,0)" xlink:href="#aY"/><use transform="matrix(0.05,0,0,0.05,36.9,0)" xlink:href="#aV"/><use transform="matrix(0.05,0,0,0.05,46.9,0)" xlink:href="#by"/><use transform="matrix(0.05,0,0,0.05,55.900000000000006,0)" xlink:href="#bp"/><use transform="matrix(0.05,0,0,0.05,65.9,0)" xlink:href="#aY"/><use transform="matrix(0.05,0,0,0.05,71.85000000000001,0)" xlink:href="#bu"/><use transform="matrix(0.05,0,0,0.05,81.85000000000001,0)" xlink:href="#bz"/><use transform="matrix(0.05,0,0,0.05,94.80000000000001,0)" xlink:href="#bc"/><use transform="matrix(0.05,0,0,0.05,98.75000000000001,0)" xlink:href="#by"/><use transform="matrix(0.05,0,0,0.05,107.75,0)" xlink:href="#bg"/><use transform="matrix(0.05,0,0,0.05,112.75,0)" xlink:href="#aY"/><use transform="matrix(0.05,0,0,0.05,118.7,0)" xlink:href="#bc"/><use transform="matrix(0.05,0,0,0.05,122.65000000000003,0)" xlink:href="#bj"/><use transform="matrix(0.05,0,0,0.05,132.65000000000003,0)" xlink:href="#bA"/><use transform="matrix(0.05,0,0,0.05,142.65000000000003,0)" xlink:href="#bc"/><use transform="matrix(0.05,0,0,0.05,146.60000000000002,0)" xlink:href="#aX"/><use transform="matrix(0.05,0,0,0.05,156.60000000000002,0)" xlink:href="#aZ"/><use transform="matrix(0.05,0,0,0.05,166.60000000000002,0)" xlink:href="#aY"/><use transform="matrix(0.05,0,0,0.05,172.55,0)" xlink:href="#bq"/><use transform="matrix(0.05,0,0,0.05,178.5,0)" xlink:href="#br"/></g><path fill="#333" d="M30 0v-248h187v28H63v79h144v27H63v87h162V0H30" id="bB"/><g id="v"><use transform="matrix(0.05,0,0,0.05,0,0)" xlink:href="#bn"/><use transform="matrix(0.05,0,0,0.05,5.95,0)" xlink:href="#bB"/><use transform="matrix(0.05,0,0,0.05,17.95,0)" xlink:href="#bm"/><use transform="matrix(0.05,0,0,0.05,21.9,0)" xlink:href="#bc"/><use transform="matrix(0.05,0,0,0.05,25.849999999999994,0)" xlink:href="#bi"/><use transform="matrix(0.05,0,0,0.05,40.8,0)" xlink:href="#bc"/><use transform="matrix(0.05,0,0,0.05,44.75,0)" xlink:href="#aW"/><use transform="matrix(0.05,0,0,0.05,54.75,0)" xlink:href="#bp"/><use transform="matrix(0.05,0,0,0.05,64.75,0)" xlink:href="#aY"/><use transform="matrix(0.05,0,0,0.05,70.7,0)" xlink:href="#bu"/><use transform="matrix(0.05,0,0,0.05,80.7,0)" xlink:href="#bz"/><use transform="matrix(0.05,0,0,0.05,93.65,0)" xlink:href="#bc"/><use transform="matrix(0.05,0,0,0.05,97.60000000000001,0)" xlink:href="#by"/><use transform="matrix(0.05,0,0,0.05,106.60000000000001,0)" xlink:href="#bg"/><use transform="matrix(0.05,0,0,0.05,111.60000000000001,0)" xlink:href="#aY"/><use transform="matrix(0.05,0,0,0.05,117.55000000000001,0)" xlink:href="#bc"/><use transform="matrix(0.05,0,0,0.05,121.5,0)" xlink:href="#bj"/><use transform="matrix(0.05,0,0,0.05,131.5,0)" xlink:href="#bA"/><use transform="matrix(0.05,0,0,0.05,141.5,0)" xlink:href="#bc"/><use transform="matrix(0.05,0,0,0.05,145.45,0)" xlink:href="#aX"/><use transform="matrix(0.05,0,0,0.05,155.45,0)" xlink:href="#aZ"/><use transform="matrix(0.05,0,0,0.05,165.45,0)" xlink:href="#aY"/><use transform="matrix(0.05,0,0,0.05,171.39999999999998,0)" xlink:href="#bq"/><use transform="matrix(0.05,0,0,0.05,177.34999999999997,0)" xlink:href="#br"/></g><path d="M15-91v-56l181-69v40L49-119l147 57v40" id="bC"/><path d="M24 0v-248h52V0H24" id="bD"/><path d="M135-194c87-1 58 113 63 194h-50c-7-57 23-157-34-157-59 0-34 97-39 157H25l-1-190h47c2 12-1 28 3 38 12-26 28-41 61-42" id="bE"/><path d="M115-3C79 11 28 4 28-45v-112H4v-33h27l15-45h31v45h36v33H77v99c-1 23 16 31 38 25v30" id="bF"/><path d="M185-48c-13 30-37 53-82 52C43 2 14-33 14-96s30-98 90-98c62 0 83 45 84 108H66c0 31 8 55 39 56 18 0 30-7 34-22zm-45-69c5-46-57-63-70-21-2 6-4 13-4 21h74" id="bG"/><path d="M135-150c-39-12-60 13-60 57V0H25l-1-190h47c2 13-1 29 3 40 6-28 27-53 61-41v41" id="bH"/><path d="M121-226c-27-7-43 5-38 36h38v33H83V0H34v-157H6v-33h28c-9-59 32-81 87-68v32" id="bI"/><path d="M133-34C117-15 103 5 69 4 32 3 11-16 11-54c-1-60 55-63 116-61 1-26-3-47-28-47-18 1-26 9-28 27l-52-2c7-38 36-58 82-57s74 22 75 68l1 82c-1 14 12 18 25 15v27c-30 8-71 5-69-32zm-48 3c29 0 43-24 42-57-32 0-66-3-65 30 0 17 8 27 23 27" id="bJ"/><path d="M12 0v-35l95-120H19v-35h142v35L67-36h103V0H12" id="bK"/><path d="M15-22v-40l146-57-146-57v-40l181 69v56" id="bL"/><g id="w"><use transform="matrix(0.05,0,0,0.05,0,0)" xlink:href="#bC"/><use transform="matrix(0.05,0,0,0.05,10.5,0)" xlink:href="#bC"/><use transform="matrix(0.05,0,0,0.05,21,0)" xlink:href="#bD"/><use transform="matrix(0.05,0,0,0.05,26,0)" xlink:href="#bE"/><use transform="matrix(0.05,0,0,0.05,36.95,0)" xlink:href="#bF"/><use transform="matrix(0.05,0,0,0.05,42.900000000000006,0)" xlink:href="#bG"/><use transform="matrix(0.05,0,0,0.05,52.900000000000006,0)" xlink:href="#bH"/><use transform="matrix(0.05,0,0,0.05,59.900000000000006,0)" xlink:href="#bI"/><use transform="matrix(0.05,0,0,0.05,65.85000000000001,0)" xlink:href="#bJ"/><use transform="matrix(0.05,0,0,0.05,75.85000000000001,0)" xlink:href="#bK"/><use transform="matrix(0.05,0,0,0.05,84.85000000000001,0)" xlink:href="#bL"/><use transform="matrix(0.05,0,0,0.05,95.35000000000001,0)" xlink:href="#bL"/></g><path d="M230 0l2-204L168 0h-37L68-204 70 0H24v-248h70l56 185 57-185h69V0h-46" id="bM"/><path d="M85 4C-2 5 27-109 22-190h50c7 57-23 150 33 157 60-5 35-97 40-157h50l1 190h-47c-2-12 1-28-3-38-12 25-28 42-61 42" id="bN"/><path d="M-4 44V30h207v14H-4" id="bO"/><path d="M24-248c93 1 206-16 204 79-1 75-69 88-152 82V0H24v-248zm52 121c47 0 100 7 100-41 0-47-54-39-100-39v80" id="bP"/><path d="M25-224v-37h50v37H25zM25 0v-190h50V0H25" id="bQ"/><path d="M190-63c-7 42-38 67-86 67-59 0-84-38-90-98-12-110 154-137 174-36l-49 2c-2-19-15-32-35-32-30 0-35 28-38 64-6 74 65 87 74 30" id="bR"/><path d="M135-194c53 0 70 44 70 98 0 56-19 98-73 100-31 1-45-17-59-34 3 33 2 69 2 105H25l-1-265h48c2 10 0 23 3 31 11-24 29-35 60-35zM114-30c33 0 39-31 40-66 0-38-9-64-40-64-56 0-55 130 0 130" id="bS"/><path d="M25 0v-261h50V0H25" id="bT"/><g id="x"><use transform="matrix(0.05,0,0,0.05,0,0)" xlink:href="#bM"/><use transform="matrix(0.05,0,0,0.05,14.950000000000001,0)" xlink:href="#bG"/><use transform="matrix(0.05,0,0,0.05,24.950000000000003,0)" xlink:href="#bE"/><use transform="matrix(0.05,0,0,0.05,35.900000000000006,0)" xlink:href="#bN"/><use transform="matrix(0.05,0,0,0.05,46.85000000000001,0)" xlink:href="#bO"/><use transform="matrix(0.05,0,0,0.05,56.85,0)" xlink:href="#bP"/><use transform="matrix(0.05,0,0,0.05,68.85000000000001,0)" xlink:href="#bH"/><use transform="matrix(0.05,0,0,0.05,75.85000000000001,0)" xlink:href="#bQ"/><use transform="matrix(0.05,0,0,0.05,80.85000000000001,0)" xlink:href="#bE"/><use transform="matrix(0.05,0,0,0.05,91.80000000000001,0)" xlink:href="#bR"/><use transform="matrix(0.05,0,0,0.05,101.80000000000001,0)" xlink:href="#bQ"/><use transform="matrix(0.05,0,0,0.05,106.80000000000001,0)" xlink:href="#bS"/><use transform="matrix(0.05,0,0,0.05,117.75,0)" xlink:href="#bJ"/><use transform="matrix(0.05,0,0,0.05,127.75,0)" xlink:href="#bT"/></g><path fill="#333" d="M96-169c-40 0-48 33-48 73s9 75 48 75c24 0 41-14 43-38l32 2c-6 37-31 61-74 61-59 0-76-41-82-99-10-93 101-131 147-64 4 7 5 14 7 22l-32 3c-4-21-16-35-41-35" id="bU"/><g id="y"><use transform="matrix(0.05,0,0,0.05,0,0)" xlink:href="#bf"/><use transform="matrix(0.05,0,0,0.05,12,0)" xlink:href="#aV"/><use transform="matrix(0.05,0,0,0.05,22,0)" xlink:href="#bm"/><use transform="matrix(0.05,0,0,0.05,25.950000000000003,0)" xlink:href="#aV"/><use transform="matrix(0.05,0,0,0.05,35.95,0)" xlink:href="#bU"/><use transform="matrix(0.05,0,0,0.05,44.95,0)" xlink:href="#bU"/><use transform="matrix(0.05,0,0,0.05,53.95,0)" xlink:href="#bc"/><use transform="matrix(0.05,0,0,0.05,57.900000000000006,0)" xlink:href="#aZ"/><use transform="matrix(0.05,0,0,0.05,67.9,0)" xlink:href="#aW"/><use transform="matrix(0.05,0,0,0.05,77.9,0)" xlink:href="#bu"/><use transform="matrix(0.05,0,0,0.05,87.9,0)" xlink:href="#bz"/><use transform="matrix(0.05,0,0,0.05,100.85000000000001,0)" xlink:href="#bc"/><use transform="matrix(0.05,0,0,0.05,104.80000000000001,0)" xlink:href="#by"/><use transform="matrix(0.05,0,0,0.05,113.80000000000001,0)" xlink:href="#bg"/><use transform="matrix(0.05,0,0,0.05,118.80000000000001,0)" xlink:href="#aY"/><use transform="matrix(0.05,0,0,0.05,124.75,0)" xlink:href="#bc"/><use transform="matrix(0.05,0,0,0.05,128.70000000000002,0)" xlink:href="#bj"/><use transform="matrix(0.05,0,0,0.05,138.70000000000002,0)" xlink:href="#bA"/><use transform="matrix(0.05,0,0,0.05,148.70000000000002,0)" xlink:href="#bc"/><use transform="matrix(0.05,0,0,0.05,152.65,0)" xlink:href="#aX"/><use transform="matrix(0.05,0,0,0.05,162.65,0)" xlink:href="#aZ"/><use transform="matrix(0.05,0,0,0.05,172.65,0)" xlink:href="#aY"/><use transform="matrix(0.05,0,0,0.05,178.6,0)" xlink:href="#bq"/><use transform="matrix(0.05,0,0,0.05,184.54999999999998,0)" xlink:href="#br"/></g><g id="A"><use transform="matrix(0.05,0,0,0.05,0,0)" xlink:href="#bz"/><use transform="matrix(0.05,0,0,0.05,12.950000000000001,0)" xlink:href="#bc"/><use transform="matrix(0.05,0,0,0.05,16.900000000000002,0)" xlink:href="#by"/><use transform="matrix(0.05,0,0,0.05,25.900000000000002,0)" xlink:href="#bg"/><use transform="matrix(0.05,0,0,0.05,30.900000000000002,0)" xlink:href="#aY"/><use transform="matrix(0.05,0,0,0.05,36.85,0)" xlink:href="#bc"/><use transform="matrix(0.05,0,0,0.05,40.800000000000004,0)" xlink:href="#bj"/><use transform="matrix(0.05,0,0,0.05,50.800000000000004,0)" xlink:href="#bA"/><use transform="matrix(0.05,0,0,0.05,60.800000000000004,0)" xlink:href="#bc"/><use transform="matrix(0.05,0,0,0.05,64.75,0)" xlink:href="#aX"/><use transform="matrix(0.05,0,0,0.05,74.75,0)" xlink:href="#aZ"/><use transform="matrix(0.05,0,0,0.05,84.75,0)" xlink:href="#aY"/></g><g id="B"><use transform="matrix(0.05,0,0,0.05,0,0)" xlink:href="#ba"/><use transform="matrix(0.05,0,0,0.05,10.5,0)" xlink:href="#bb"/><use transform="matrix(0.05,0,0,0.05,23.450000000000003,0)" xlink:href="#aZ"/><use transform="matrix(0.05,0,0,0.05,33.45,0)" xlink:href="#aX"/><use transform="matrix(0.05,0,0,0.05,43.45,0)" xlink:href="#bc"/><use transform="matrix(0.05,0,0,0.05,47.400000000000006,0)" xlink:href="#bd"/><use transform="matrix(0.05,0,0,0.05,57.400000000000006,0)" xlink:href="#aZ"/></g><g id="C"><use transform="matrix(0.05,0,0,0.05,0,0)" xlink:href="#ba"/><use transform="matrix(0.05,0,0,0.05,10.5,0)" xlink:href="#bh"/><use transform="matrix(0.05,0,0,0.05,23.450000000000003,0)" xlink:href="#aZ"/><use transform="matrix(0.05,0,0,0.05,33.45,0)" xlink:href="#bi"/><use transform="matrix(0.05,0,0,0.05,48.400000000000006,0)" xlink:href="#bj"/><use transform="matrix(0.05,0,0,0.05,58.400000000000006,0)" xlink:href="#aY"/><use transform="matrix(0.05,0,0,0.05,64.35000000000001,0)" xlink:href="#aV"/></g><path fill="#333" d="M160-131c35 5 61 23 61 61C221 17 115-2 30 0v-248c76 3 177-17 177 60 0 33-19 50-47 57zm-97-11c50-1 110 9 110-42 0-47-63-36-110-37v79zm0 115c55-2 124 14 124-45 0-56-70-42-124-44v89" id="bV"/><g id="D"><use transform="matrix(0.05,0,0,0.05,0,0)" xlink:href="#bk"/><use transform="matrix(0.05,0,0,0.05,12,0)" xlink:href="#bU"/><use transform="matrix(0.05,0,0,0.05,21,0)" xlink:href="#bg"/><use transform="matrix(0.05,0,0,0.05,26,0)" xlink:href="#bA"/><use transform="matrix(0.05,0,0,0.05,36,0)" xlink:href="#bp"/><use transform="matrix(0.05,0,0,0.05,46,0)" xlink:href="#bm"/><use transform="matrix(0.05,0,0,0.05,49.95,0)" xlink:href="#bc"/><use transform="matrix(0.05,0,0,0.05,53.900000000000006,0)" xlink:href="#bt"/><use transform="matrix(0.05,0,0,0.05,62.900000000000006,0)" xlink:href="#bp"/><use transform="matrix(0.05,0,0,0.05,72.9,0)" xlink:href="#aY"/><use transform="matrix(0.05,0,0,0.05,78.85000000000001,0)" xlink:href="#bu"/><use transform="matrix(0.05,0,0,0.05,88.85000000000001,0)" xlink:href="#bV"/><use transform="matrix(0.05,0,0,0.05,100.85000000000001,0)" xlink:href="#bp"/><use transform="matrix(0.05,0,0,0.05,110.85000000000001,0)" xlink:href="#by"/><use transform="matrix(0.05,0,0,0.05,119.85000000000001,0)" xlink:href="#aV"/><use transform="matrix(0.05,0,0,0.05,129.85000000000002,0)" xlink:href="#bu"/><use transform="matrix(0.05,0,0,0.05,139.85000000000002,0)" xlink:href="#aX"/><use transform="matrix(0.05,0,0,0.05,149.85000000000002,0)" xlink:href="#aV"/><use transform="matrix(0.05,0,0,0.05,159.85000000000002,0)" xlink:href="#bu"/><use transform="matrix(0.05,0,0,0.05,169.85000000000002,0)" xlink:href="#aX"/><use transform="matrix(0.05,0,0,0.05,179.85000000000002,0)" xlink:href="#bp"/><use transform="matrix(0.05,0,0,0.05,189.85000000000002,0)" xlink:href="#bg"/><use transform="matrix(0.05,0,0,0.05,194.85000000000002,0)" xlink:href="#aZ"/><use transform="matrix(0.05,0,0,0.05,204.85000000000002,0)" xlink:href="#by"/><use transform="matrix(0.05,0,0,0.05,213.85000000000002,0)" xlink:href="#bq"/><use transform="matrix(0.05,0,0,0.05,219.8,0)" xlink:href="#br"/></g><g id="E"><use transform="matrix(0.05,0,0,0.05,0,0)" xlink:href="#bo"/><use transform="matrix(0.05,0,0,0.05,10.65,0)" xlink:href="#bp"/><use transform="matrix(0.05,0,0,0.05,20.65,0)" xlink:href="#bm"/><use transform="matrix(0.05,0,0,0.05,24.599999999999998,0)" xlink:href="#bc"/><use transform="matrix(0.05,0,0,0.05,28.549999999999997,0)" xlink:href="#aX"/><use transform="matrix(0.05,0,0,0.05,38.55,0)" xlink:href="#bp"/><use transform="matrix(0.05,0,0,0.05,48.55,0)" xlink:href="#aY"/><use transform="matrix(0.05,0,0,0.05,54.5,0)" xlink:href="#bu"/><use transform="matrix(0.05,0,0,0.05,64.5,0)" xlink:href="#bb"/><use transform="matrix(0.05,0,0,0.05,77.45,0)" xlink:href="#aZ"/><use transform="matrix(0.05,0,0,0.05,87.45,0)" xlink:href="#bi"/><use transform="matrix(0.05,0,0,0.05,102.4,0)" xlink:href="#by"/><use transform="matrix(0.05,0,0,0.05,111.4,0)" xlink:href="#bA"/><use transform="matrix(0.05,0,0,0.05,121.4,0)" xlink:href="#bi"/><use transform="matrix(0.05,0,0,0.05,136.35,0)" xlink:href="#bc"/><use transform="matrix(0.05,0,0,0.05,140.29999999999998,0)" xlink:href="#aX"/><use transform="matrix(0.05,0,0,0.05,150.29999999999998,0)" xlink:href="#aZ"/><use transform="matrix(0.05,0,0,0.05,160.29999999999998,0)" xlink:href="#aY"/><use transform="matrix(0.05,0,0,0.05,166.24999999999997,0)" xlink:href="#bq"/><use transform="matrix(0.05,0,0,0.05,172.19999999999996,0)" xlink:href="#br"/></g><g id="F"><use transform="matrix(0.05,0,0,0.05,0,0)" xlink:href="#bv"/><use transform="matrix(0.05,0,0,0.05,12,0)" xlink:href="#aV"/><use transform="matrix(0.05,0,0,0.05,22,0)" xlink:href="#aX"/><use transform="matrix(0.05,0,0,0.05,32,0)" xlink:href="#bc"/><use transform="matrix(0.05,0,0,0.05,35.95,0)" xlink:href="#aX"/><use transform="matrix(0.05,0,0,0.05,45.95,0)" xlink:href="#aZ"/></g><g id="G"><use transform="matrix(0.05,0,0,0.05,0,0)" xlink:href="#ba"/><use transform="matrix(0.05,0,0,0.05,10.5,0)" xlink:href="#bb"/><use transform="matrix(0.05,0,0,0.05,23.450000000000003,0)" xlink:href="#aZ"/><use transform="matrix(0.05,0,0,0.05,33.45,0)" xlink:href="#aX"/><use transform="matrix(0.05,0,0,0.05,43.45,0)" xlink:href="#bc"/><use transform="matrix(0.05,0,0,0.05,47.400000000000006,0)" xlink:href="#bd"/><use transform="matrix(0.05,0,0,0.05,57.400000000000006,0)" xlink:href="#aZ"/><use transform="matrix(0.05,0,0,0.05,67.4,0)" xlink:href="#bu"/><use transform="matrix(0.05,0,0,0.05,77.4,0)" xlink:href="#aX"/><use transform="matrix(0.05,0,0,0.05,87.4,0)" xlink:href="#aV"/><use transform="matrix(0.05,0,0,0.05,97.4,0)" xlink:href="#bu"/><use transform="matrix(0.05,0,0,0.05,107.4,0)" xlink:href="#bv"/><use transform="matrix(0.05,0,0,0.05,119.4,0)" xlink:href="#aV"/><use transform="matrix(0.05,0,0,0.05,129.4,0)" xlink:href="#aX"/><use transform="matrix(0.05,0,0,0.05,139.4,0)" xlink:href="#bc"/><use transform="matrix(0.05,0,0,0.05,143.35,0)" xlink:href="#aX"/><use transform="matrix(0.05,0,0,0.05,153.35,0)" xlink:href="#aZ"/><use transform="matrix(0.05,0,0,0.05,163.35,0)" xlink:href="#be"/><use transform="matrix(0.05,0,0,0.05,168.35,0)" xlink:href="#bf"/><use transform="matrix(0.05,0,0,0.05,180.35,0)" xlink:href="#bg"/><use transform="matrix(0.05,0,0,0.05,185.35,0)" xlink:href="#aY"/><use transform="matrix(0.05,0,0,0.05,191.29999999999998,0)" xlink:href="#bc"/><use transform="matrix(0.05,0,0,0.05,195.24999999999997,0)" xlink:href="#aW"/><use transform="matrix(0.05,0,0,0.05,205.24999999999997,0)" xlink:href="#bd"/></g><g id="H"><use transform="matrix(0.05,0,0,0.05,0,0)" xlink:href="#ba"/><use transform="matrix(0.05,0,0,0.05,10.5,0)" xlink:href="#bb"/><use transform="matrix(0.05,0,0,0.05,23.450000000000003,0)" xlink:href="#bp"/><use transform="matrix(0.05,0,0,0.05,33.45,0)" xlink:href="#aW"/><use transform="matrix(0.05,0,0,0.05,43.45,0)" xlink:href="#bg"/><use transform="matrix(0.05,0,0,0.05,48.45,0)" xlink:href="#bc"/><use transform="matrix(0.05,0,0,0.05,52.400000000000006,0)" xlink:href="#aX"/><use transform="matrix(0.05,0,0,0.05,62.400000000000006,0)" xlink:href="#bp"/><use transform="matrix(0.05,0,0,0.05,72.4,0)" xlink:href="#aX"/><use transform="matrix(0.05,0,0,0.05,82.4,0)" xlink:href="#be"/><use transform="matrix(0.05,0,0,0.05,87.4,0)" xlink:href="#bx"/><use transform="matrix(0.05,0,0,0.05,92.4,0)" xlink:href="#aW"/><use transform="matrix(0.05,0,0,0.05,102.4,0)" xlink:href="#bg"/></g><g id="I"><use transform="matrix(0.05,0,0,0.05,0,0)" xlink:href="#ba"/><use transform="matrix(0.05,0,0,0.05,10.5,0)" xlink:href="#bB"/><use transform="matrix(0.05,0,0,0.05,22.5,0)" xlink:href="#by"/><use transform="matrix(0.05,0,0,0.05,31.5,0)" xlink:href="#bg"/><use transform="matrix(0.05,0,0,0.05,36.5,0)" xlink:href="#bp"/><use transform="matrix(0.05,0,0,0.05,46.5,0)" xlink:href="#aX"/><use transform="matrix(0.05,0,0,0.05,56.5,0)" xlink:href="#aZ"/><use transform="matrix(0.05,0,0,0.05,66.5,0)" xlink:href="#be"/><use transform="matrix(0.05,0,0,0.05,71.5,0)" xlink:href="#bx"/><use transform="matrix(0.05,0,0,0.05,76.5,0)" xlink:href="#aW"/><use transform="matrix(0.05,0,0,0.05,86.5,0)" xlink:href="#bg"/></g><g id="J"><use transform="matrix(0.05,0,0,0.05,0,0)" xlink:href="#bv"/><use transform="matrix(0.05,0,0,0.05,12,0)" xlink:href="#aY"/><use transform="matrix(0.05,0,0,0.05,17.95,0)" xlink:href="#aV"/><use transform="matrix(0.05,0,0,0.05,27.950000000000003,0)" xlink:href="#bU"/><use transform="matrix(0.05,0,0,0.05,36.95,0)" xlink:href="#bc"/><use transform="matrix(0.05,0,0,0.05,40.900000000000006,0)" xlink:href="#aZ"/><use transform="matrix(0.05,0,0,0.05,50.900000000000006,0)" xlink:href="#bu"/><use transform="matrix(0.05,0,0,0.05,60.900000000000006,0)" xlink:href="#aU"/><use transform="matrix(0.05,0,0,0.05,69.85000000000001,0)" xlink:href="#aZ"/><use transform="matrix(0.05,0,0,0.05,79.85000000000001,0)" xlink:href="#bg"/><use transform="matrix(0.05,0,0,0.05,84.85000000000001,0)" xlink:href="#bp"/><use transform="matrix(0.05,0,0,0.05,94.85000000000001,0)" xlink:href="#bm"/><use transform="matrix(0.05,0,0,0.05,98.80000000000001,0)" xlink:href="#be"/><use transform="matrix(0.05,0,0,0.05,103.80000000000001,0)" xlink:href="#bx"/><use transform="matrix(0.05,0,0,0.05,108.80000000000001,0)" xlink:href="#aW"/><use transform="matrix(0.05,0,0,0.05,118.80000000000001,0)" xlink:href="#bg"/></g><g id="K"><use transform="matrix(0.05,0,0,0.05,0,0)" xlink:href="#bn"/><use transform="matrix(0.05,0,0,0.05,5.95,0)" xlink:href="#bb"/><use transform="matrix(0.05,0,0,0.05,18.900000000000002,0)" xlink:href="#aZ"/><use transform="matrix(0.05,0,0,0.05,28.900000000000002,0)" xlink:href="#aW"/><use transform="matrix(0.05,0,0,0.05,38.900000000000006,0)" xlink:href="#by"/><use transform="matrix(0.05,0,0,0.05,47.900000000000006,0)" xlink:href="#bA"/><use transform="matrix(0.05,0,0,0.05,57.900000000000006,0)" xlink:href="#bm"/><use transform="matrix(0.05,0,0,0.05,61.85,0)" xlink:href="#bg"/><use transform="matrix(0.05,0,0,0.05,66.85000000000001,0)" xlink:href="#bp"/><use transform="matrix(0.05,0,0,0.05,76.85000000000001,0)" xlink:href="#aY"/><use transform="matrix(0.05,0,0,0.05,82.80000000000001,0)" xlink:href="#bu"/><use transform="matrix(0.05,0,0,0.05,92.80000000000001,0)" xlink:href="#bv"/><use transform="matrix(0.05,0,0,0.05,104.80000000000001,0)" xlink:href="#aV"/><use transform="matrix(0.05,0,0,0.05,114.80000000000001,0)" xlink:href="#aX"/><use transform="matrix(0.05,0,0,0.05,124.80000000000001,0)" xlink:href="#bc"/><use transform="matrix(0.05,0,0,0.05,128.75,0)" xlink:href="#aX"/><use transform="matrix(0.05,0,0,0.05,138.75,0)" xlink:href="#aZ"/><use transform="matrix(0.05,0,0,0.05,148.75,0)" xlink:href="#bq"/><use transform="matrix(0.05,0,0,0.05,154.7,0)" xlink:href="#br"/></g><g id="L"><use transform="matrix(0.05,0,0,0.05,0,0)" xlink:href="#bn"/><use transform="matrix(0.05,0,0,0.05,5.95,0)" xlink:href="#bb"/><use transform="matrix(0.05,0,0,0.05,18.900000000000002,0)" xlink:href="#bp"/><use transform="matrix(0.05,0,0,0.05,28.900000000000002,0)" xlink:href="#bm"/><use transform="matrix(0.05,0,0,0.05,32.85,0)" xlink:href="#bU"/><use transform="matrix(0.05,0,0,0.05,41.85,0)" xlink:href="#bA"/><use transform="matrix(0.05,0,0,0.05,51.85,0)" xlink:href="#bm"/><use transform="matrix(0.05,0,0,0.05,55.800000000000004,0)" xlink:href="#bp"/><use transform="matrix(0.05,0,0,0.05,65.80000000000001,0)" xlink:href="#aY"/><use transform="matrix(0.05,0,0,0.05,71.75000000000001,0)" xlink:href="#bu"/><use transform="matrix(0.05,0,0,0.05,81.75000000000001,0)" xlink:href="#bv"/><use transform="matrix(0.05,0,0,0.05,93.75000000000001,0)" xlink:href="#aY"/><use transform="matrix(0.05,0,0,0.05,99.70000000000002,0)" xlink:href="#aV"/><use transform="matrix(0.05,0,0,0.05,109.7,0)" xlink:href="#bU"/><use transform="matrix(0.05,0,0,0.05,118.7,0)" xlink:href="#bc"/><use transform="matrix(0.05,0,0,0.05,122.65000000000003,0)" xlink:href="#aZ"/><use transform="matrix(0.05,0,0,0.05,132.65000000000003,0)" xlink:href="#bu"/><use transform="matrix(0.05,0,0,0.05,142.65000000000003,0)" xlink:href="#aU"/><use transform="matrix(0.05,0,0,0.05,151.60000000000002,0)" xlink:href="#aZ"/><use transform="matrix(0.05,0,0,0.05,161.60000000000002,0)" xlink:href="#bg"/><use transform="matrix(0.05,0,0,0.05,166.60000000000002,0)" xlink:href="#bp"/><use transform="matrix(0.05,0,0,0.05,176.60000000000002,0)" xlink:href="#bm"/><use transform="matrix(0.05,0,0,0.05,180.55,0)" xlink:href="#bq"/><use transform="matrix(0.05,0,0,0.05,186.5,0)" xlink:href="#br"/></g><path fill="#333" d="M232-93c-1 65-40 97-104 97C67 4 28-28 28-90v-158h33c8 89-33 224 67 224 102 0 64-133 71-224h33v155" id="bW"/><g id="M"><use transform="matrix(0.05,0,0,0.05,0,0)" xlink:href="#bn"/><use transform="matrix(0.05,0,0,0.05,5.95,0)" xlink:href="#bb"/><use transform="matrix(0.05,0,0,0.05,18.900000000000002,0)" xlink:href="#bp"/><use transform="matrix(0.05,0,0,0.05,28.900000000000002,0)" xlink:href="#bm"/><use transform="matrix(0.05,0,0,0.05,32.85,0)" xlink:href="#bU"/><use transform="matrix(0.05,0,0,0.05,41.85,0)" xlink:href="#bA"/><use transform="matrix(0.05,0,0,0.05,51.85,0)" xlink:href="#bm"/><use transform="matrix(0.05,0,0,0.05,55.800000000000004,0)" xlink:href="#bp"/><use transform="matrix(0.05,0,0,0.05,65.80000000000001,0)" xlink:href="#aY"/><use transform="matrix(0.05,0,0,0.05,71.75000000000001,0)" xlink:href="#bu"/><use transform="matrix(0.05,0,0,0.05,81.75000000000001,0)" xlink:href="#bz"/><use transform="matrix(0.05,0,0,0.05,94.70000000000002,0)" xlink:href="#aV"/><use transform="matrix(0.05,0,0,0.05,104.7,0)" xlink:href="#by"/><use transform="matrix(0.05,0,0,0.05,113.7,0)" xlink:href="#bU"/><use transform="matrix(0.05,0,0,0.05,122.7,0)" xlink:href="#bA"/><use transform="matrix(0.05,0,0,0.05,132.70000000000002,0)" xlink:href="#aV"/><use transform="matrix(0.05,0,0,0.05,142.70000000000002,0)" xlink:href="#aW"/><use transform="matrix(0.05,0,0,0.05,152.70000000000002,0)" xlink:href="#bg"/><use transform="matrix(0.05,0,0,0.05,157.70000000000002,0)" xlink:href="#aZ"/><use transform="matrix(0.05,0,0,0.05,167.70000000000002,0)" xlink:href="#bu"/><use transform="matrix(0.05,0,0,0.05,177.70000000000002,0)" xlink:href="#bv"/><use transform="matrix(0.05,0,0,0.05,189.70000000000002,0)" xlink:href="#aZ"/><use transform="matrix(0.05,0,0,0.05,199.70000000000002,0)" xlink:href="#aY"/><use transform="matrix(0.05,0,0,0.05,205.65,0)" xlink:href="#bu"/><use transform="matrix(0.05,0,0,0.05,215.65,0)" xlink:href="#bW"/><use transform="matrix(0.05,0,0,0.05,228.60000000000002,0)" xlink:href="#by"/><use transform="matrix(0.05,0,0,0.05,237.60000000000002,0)" xlink:href="#bA"/><use transform="matrix(0.05,0,0,0.05,247.60000000000002,0)" xlink:href="#bp"/><use transform="matrix(0.05,0,0,0.05,257.6,0)" xlink:href="#aY"/><use transform="matrix(0.05,0,0,0.05,263.55,0)" xlink:href="#bc"/><use transform="matrix(0.05,0,0,0.05,267.5,0)" xlink:href="#aZ"/><use transform="matrix(0.05,0,0,0.05,277.5,0)" xlink:href="#bq"/><use transform="matrix(0.05,0,0,0.05,283.45,0)" xlink:href="#br"/></g><g id="N"><use transform="matrix(0.05,0,0,0.05,0,0)" xlink:href="#bv"/><use transform="matrix(0.05,0,0,0.05,12,0)" xlink:href="#aY"/><use transform="matrix(0.05,0,0,0.05,17.95,0)" xlink:href="#aZ"/><use transform="matrix(0.05,0,0,0.05,27.950000000000003,0)" xlink:href="#aX"/><use transform="matrix(0.05,0,0,0.05,37.95,0)" xlink:href="#bA"/><use transform="matrix(0.05,0,0,0.05,47.95,0)" xlink:href="#bU"/><use transform="matrix(0.05,0,0,0.05,56.95,0)" xlink:href="#bg"/><use transform="matrix(0.05,0,0,0.05,61.95,0)" xlink:href="#aZ"/></g><g id="O"><use transform="matrix(0.05,0,0,0.05,0,0)" xlink:href="#ba"/><use transform="matrix(0.05,0,0,0.05,10.5,0)" xlink:href="#bz"/><use transform="matrix(0.05,0,0,0.05,23.450000000000003,0)" xlink:href="#aV"/><use transform="matrix(0.05,0,0,0.05,33.45,0)" xlink:href="#by"/><use transform="matrix(0.05,0,0,0.05,42.45,0)" xlink:href="#bU"/><use transform="matrix(0.05,0,0,0.05,51.45,0)" xlink:href="#aY"/><use transform="matrix(0.05,0,0,0.05,57.400000000000006,0)" xlink:href="#bc"/><use transform="matrix(0.05,0,0,0.05,61.35,0)" xlink:href="#bl"/><use transform="matrix(0.05,0,0,0.05,71.35000000000001,0)" xlink:href="#bU"/><use transform="matrix(0.05,0,0,0.05,80.35000000000001,0)" xlink:href="#bc"/><use transform="matrix(0.05,0,0,0.05,84.30000000000001,0)" xlink:href="#aZ"/><use transform="matrix(0.05,0,0,0.05,94.30000000000001,0)" xlink:href="#aW"/></g><g id="P"><use transform="matrix(0.05,0,0,0.05,0,0)" xlink:href="#ba"/><use transform="matrix(0.05,0,0,0.05,10.5,0)" xlink:href="#bv"/><use transform="matrix(0.05,0,0,0.05,22.5,0)" xlink:href="#aY"/><use transform="matrix(0.05,0,0,0.05,28.450000000000003,0)" xlink:href="#aV"/><use transform="matrix(0.05,0,0,0.05,38.45,0)" xlink:href="#bU"/><use transform="matrix(0.05,0,0,0.05,47.45,0)" xlink:href="#bc"/><use transform="matrix(0.05,0,0,0.05,51.400000000000006,0)" xlink:href="#aZ"/></g><g id="Q"><use transform="matrix(0.05,0,0,0.05,0,0)" xlink:href="#ba"/><use transform="matrix(0.05,0,0,0.05,10.5,0)" xlink:href="#bb"/><use transform="matrix(0.05,0,0,0.05,23.450000000000003,0)" xlink:href="#bp"/><use transform="matrix(0.05,0,0,0.05,33.45,0)" xlink:href="#aW"/><use transform="matrix(0.05,0,0,0.05,43.45,0)" xlink:href="#bg"/><use transform="matrix(0.05,0,0,0.05,48.45,0)" xlink:href="#bc"/><use transform="matrix(0.05,0,0,0.05,52.400000000000006,0)" xlink:href="#aX"/><use transform="matrix(0.05,0,0,0.05,62.400000000000006,0)" xlink:href="#bp"/><use transform="matrix(0.05,0,0,0.05,72.4,0)" xlink:href="#aX"/></g><g id="R"><use transform="matrix(0.05,0,0,0.05,0,0)" xlink:href="#ba"/><use transform="matrix(0.05,0,0,0.05,10.5,0)" xlink:href="#bv"/><use transform="matrix(0.05,0,0,0.05,22.5,0)" xlink:href="#aY"/><use transform="matrix(0.05,0,0,0.05,28.450000000000003,0)" xlink:href="#aZ"/><use transform="matrix(0.05,0,0,0.05,38.45,0)" xlink:href="#bi"/><use transform="matrix(0.05,0,0,0.05,53.400000000000006,0)" xlink:href="#aZ"/><use transform="matrix(0.05,0,0,0.05,63.400000000000006,0)" xlink:href="#bU"/><use transform="matrix(0.05,0,0,0.05,72.4,0)" xlink:href="#bc"/><use transform="matrix(0.05,0,0,0.05,76.35000000000001,0)" xlink:href="#aZ"/><use transform="matrix(0.05,0,0,0.05,86.35000000000001,0)" xlink:href="#aW"/></g><g id="S"><use transform="matrix(0.05,0,0,0.05,0,0)" xlink:href="#bn"/><use transform="matrix(0.05,0,0,0.05,5.95,0)" xlink:href="#bb"/><use transform="matrix(0.05,0,0,0.05,18.900000000000002,0)" xlink:href="#aZ"/><use transform="matrix(0.05,0,0,0.05,28.900000000000002,0)" xlink:href="#aW"/><use transform="matrix(0.05,0,0,0.05,38.900000000000006,0)" xlink:href="#by"/><use transform="matrix(0.05,0,0,0.05,47.900000000000006,0)" xlink:href="#bA"/><use transform="matrix(0.05,0,0,0.05,57.900000000000006,0)" xlink:href="#bm"/><use transform="matrix(0.05,0,0,0.05,61.85,0)" xlink:href="#bp"/><use transform="matrix(0.05,0,0,0.05,71.85000000000001,0)" xlink:href="#aY"/><use transform="matrix(0.05,0,0,0.05,77.80000000000001,0)" xlink:href="#bu"/><use transform="matrix(0.05,0,0,0.05,87.80000000000001,0)" xlink:href="#bv"/><use transform="matrix(0.05,0,0,0.05,99.80000000000001,0)" xlink:href="#aY"/><use transform="matrix(0.05,0,0,0.05,105.75,0)" xlink:href="#aZ"/><use transform="matrix(0.05,0,0,0.05,115.75,0)" xlink:href="#aX"/><use transform="matrix(0.05,0,0,0.05,125.75,0)" xlink:href="#bA"/><use transform="matrix(0.05,0,0,0.05,135.75,0)" xlink:href="#bU"/><use transform="matrix(0.05,0,0,0.05,144.75,0)" xlink:href="#bg"/><use transform="matrix(0.05,0,0,0.05,149.75,0)" xlink:href="#aZ"/><use transform="matrix(0.05,0,0,0.05,159.75,0)" xlink:href="#bq"/><use transform="matrix(0.05,0,0,0.05,165.7,0)" xlink:href="#br"/></g><path d="M88-194c31-1 46 15 58 34l-1-101h50l1 261h-48c-2-10 0-23-3-31C134-8 116 4 84 4 32 4 16-41 15-95c0-56 19-97 73-99zm17 164c33 0 40-30 41-66 1-37-9-64-41-64s-38 30-39 65c0 43 13 65 39 65" id="bX"/><path d="M110-194c64 0 96 36 96 99 0 64-35 99-97 99-61 0-95-36-95-99 0-62 34-99 96-99zm-1 164c35 0 45-28 45-65 0-40-10-65-43-65-34 0-45 26-45 65 0 36 10 65 43 65" id="bY"/><g id="T"><use transform="matrix(0.05,0,0,0.05,0,0)" xlink:href="#bM"/><use transform="matrix(0.05,0,0,0.05,14.950000000000001,0)" xlink:href="#bG"/><use transform="matrix(0.05,0,0,0.05,24.950000000000003,0)" xlink:href="#bE"/><use transform="matrix(0.05,0,0,0.05,35.900000000000006,0)" xlink:href="#bN"/><use transform="matrix(0.05,0,0,0.05,46.85000000000001,0)" xlink:href="#bO"/><use transform="matrix(0.05,0,0,0.05,56.85,0)" xlink:href="#bX"/><use transform="matrix(0.05,0,0,0.05,67.80000000000001,0)" xlink:href="#bG"/><use transform="matrix(0.05,0,0,0.05,77.80000000000001,0)" xlink:href="#bO"/><use transform="matrix(0.05,0,0,0.05,87.80000000000001,0)" xlink:href="#bP"/><use transform="matrix(0.05,0,0,0.05,99.80000000000001,0)" xlink:href="#bG"/><use transform="matrix(0.05,0,0,0.05,109.80000000000001,0)" xlink:href="#bX"/><use transform="matrix(0.05,0,0,0.05,120.75,0)" xlink:href="#bQ"/><use transform="matrix(0.05,0,0,0.05,125.75,0)" xlink:href="#bX"/><use transform="matrix(0.05,0,0,0.05,136.70000000000002,0)" xlink:href="#bY"/></g><g id="U"><use transform="matrix(0.05,0,0,0.05,0,0)" xlink:href="#bk"/><use transform="matrix(0.05,0,0,0.05,12,0)" xlink:href="#bA"/><use transform="matrix(0.05,0,0,0.05,22,0)" xlink:href="#bi"/><use transform="matrix(0.05,0,0,0.05,36.95,0)" xlink:href="#aV"/><use transform="matrix(0.05,0,0,0.05,46.95,0)" xlink:href="#aW"/><use transform="matrix(0.05,0,0,0.05,56.95,0)" xlink:href="#bg"/><use transform="matrix(0.05,0,0,0.05,61.95,0)" xlink:href="#bp"/><use transform="matrix(0.05,0,0,0.05,71.95,0)" xlink:href="#aY"/><use transform="matrix(0.05,0,0,0.05,77.9,0)" xlink:href="#bu"/><use transform="matrix(0.05,0,0,0.05,87.9,0)" xlink:href="#bh"/><use transform="matrix(0.05,0,0,0.05,100.85000000000001,0)" xlink:href="#bA"/><use transform="matrix(0.05,0,0,0.05,110.85000000000001,0)" xlink:href="#bi"/><use transform="matrix(0.05,0,0,0.05,125.80000000000001,0)" xlink:href="#aV"/><use transform="matrix(0.05,0,0,0.05,135.8,0)" xlink:href="#aY"/><use transform="matrix(0.05,0,0,0.05,141.75,0)" xlink:href="#aZ"/><use transform="matrix(0.05,0,0,0.05,151.75,0)" xlink:href="#bu"/><use transform="matrix(0.05,0,0,0.05,161.75,0)" xlink:href="#bB"/><use transform="matrix(0.05,0,0,0.05,173.75,0)" xlink:href="#bm"/><use transform="matrix(0.05,0,0,0.05,177.7,0)" xlink:href="#aV"/><use transform="matrix(0.05,0,0,0.05,187.7,0)" xlink:href="#bi"/><use transform="matrix(0.05,0,0,0.05,202.64999999999998,0)" xlink:href="#aV"/><use transform="matrix(0.05,0,0,0.05,212.64999999999998,0)" xlink:href="#aW"/><use transform="matrix(0.05,0,0,0.05,222.64999999999998,0)" xlink:href="#bg"/><use transform="matrix(0.05,0,0,0.05,227.64999999999998,0)" xlink:href="#aZ"/><use transform="matrix(0.05,0,0,0.05,237.64999999999998,0)" xlink:href="#bq"/><use transform="matrix(0.05,0,0,0.05,243.59999999999997,0)" xlink:href="#br"/></g><g id="V"><use transform="matrix(0.05,0,0,0.05,0,0)" xlink:href="#bz"/><use transform="matrix(0.05,0,0,0.05,12.950000000000001,0)" xlink:href="#bc"/><use transform="matrix(0.05,0,0,0.05,16.900000000000002,0)" xlink:href="#by"/><use transform="matrix(0.05,0,0,0.05,25.900000000000002,0)" xlink:href="#bi"/><use transform="matrix(0.05,0,0,0.05,40.85,0)" xlink:href="#bc"/><use transform="matrix(0.05,0,0,0.05,44.800000000000004,0)" xlink:href="#aW"/><use transform="matrix(0.05,0,0,0.05,54.800000000000004,0)" xlink:href="#bA"/><use transform="matrix(0.05,0,0,0.05,64.80000000000001,0)" xlink:href="#bc"/><use transform="matrix(0.05,0,0,0.05,68.75000000000001,0)" xlink:href="#aY"/><use transform="matrix(0.05,0,0,0.05,74.70000000000002,0)" xlink:href="#bu"/><use transform="matrix(0.05,0,0,0.05,84.70000000000002,0)" xlink:href="#bh"/><use transform="matrix(0.05,0,0,0.05,97.65000000000002,0)" xlink:href="#bA"/><use transform="matrix(0.05,0,0,0.05,107.65000000000003,0)" xlink:href="#bi"/><use transform="matrix(0.05,0,0,0.05,122.60000000000002,0)" xlink:href="#aV"/><use transform="matrix(0.05,0,0,0.05,132.60000000000002,0)" xlink:href="#aY"/><use transform="matrix(0.05,0,0,0.05,138.55,0)" xlink:href="#aZ"/><use transform="matrix(0.05,0,0,0.05,148.55,0)" xlink:href="#bu"/><use transform="matrix(0.05,0,0,0.05,158.55,0)" xlink:href="#bB"/><use transform="matrix(0.05,0,0,0.05,170.55,0)" xlink:href="#bm"/><use transform="matrix(0.05,0,0,0.05,174.5,0)" xlink:href="#aV"/><use transform="matrix(0.05,0,0,0.05,184.5,0)" xlink:href="#bi"/><use transform="matrix(0.05,0,0,0.05,199.45,0)" xlink:href="#aV"/><use transform="matrix(0.05,0,0,0.05,209.44999999999996,0)" xlink:href="#aW"/><use transform="matrix(0.05,0,0,0.05,219.44999999999996,0)" xlink:href="#bg"/><use transform="matrix(0.05,0,0,0.05,224.44999999999996,0)" xlink:href="#aZ"/><use transform="matrix(0.05,0,0,0.05,234.44999999999996,0)" xlink:href="#bq"/><use transform="matrix(0.05,0,0,0.05,240.39999999999998,0)" xlink:href="#br"/></g><g id="W"><use transform="matrix(0.05,0,0,0.05,0,0)" xlink:href="#bb"/><use transform="matrix(0.05,0,0,0.05,12.950000000000001,0)" xlink:href="#bp"/><use transform="matrix(0.05,0,0,0.05,22.950000000000003,0)" xlink:href="#aY"/><use transform="matrix(0.05,0,0,0.05,28.900000000000002,0)" xlink:href="#bd"/><use transform="matrix(0.05,0,0,0.05,38.900000000000006,0)" xlink:href="#bp"/><use transform="matrix(0.05,0,0,0.05,48.900000000000006,0)" xlink:href="#aY"/><use transform="matrix(0.05,0,0,0.05,54.85,0)" xlink:href="#bu"/><use transform="matrix(0.05,0,0,0.05,64.85000000000001,0)" xlink:href="#bk"/><use transform="matrix(0.05,0,0,0.05,76.85000000000001,0)" xlink:href="#bm"/><use transform="matrix(0.05,0,0,0.05,80.80000000000001,0)" xlink:href="#bu"/><use transform="matrix(0.05,0,0,0.05,90.80000000000001,0)" xlink:href="#bv"/><use transform="matrix(0.05,0,0,0.05,102.80000000000001,0)" xlink:href="#aV"/><use transform="matrix(0.05,0,0,0.05,112.80000000000001,0)" xlink:href="#aX"/><use transform="matrix(0.05,0,0,0.05,122.80000000000001,0)" xlink:href="#bc"/><use transform="matrix(0.05,0,0,0.05,126.75,0)" xlink:href="#aX"/><use transform="matrix(0.05,0,0,0.05,136.75,0)" xlink:href="#aZ"/><use transform="matrix(0.05,0,0,0.05,146.75,0)" xlink:href="#bq"/><use transform="matrix(0.05,0,0,0.05,152.7,0)" xlink:href="#br"/></g><path fill="#333" d="M140-251c81 0 123 46 123 126C263-53 228-8 163 1c7 30 30 48 69 40v23c-55 16-95-15-103-61C56-3 17-48 17-125c0-80 42-126 123-126zm0 227c63 0 89-41 89-101s-29-99-89-99c-61 0-89 39-89 99S79-25 140-24" id="bZ"/><g id="X"><use transform="matrix(0.05,0,0,0.05,0,0)" xlink:href="#bZ"/><use transform="matrix(0.05,0,0,0.05,14,0)" xlink:href="#bA"/><use transform="matrix(0.05,0,0,0.05,24,0)" xlink:href="#bc"/><use transform="matrix(0.05,0,0,0.05,27.950000000000003,0)" xlink:href="#bg"/><use transform="matrix(0.05,0,0,0.05,32.95,0)" xlink:href="#bp"/><use transform="matrix(0.05,0,0,0.05,42.95,0)" xlink:href="#aY"/><use transform="matrix(0.05,0,0,0.05,48.900000000000006,0)" xlink:href="#bu"/><use transform="matrix(0.05,0,0,0.05,58.900000000000006,0)" xlink:href="#aX"/><use transform="matrix(0.05,0,0,0.05,68.9,0)" xlink:href="#aV"/><use transform="matrix(0.05,0,0,0.05,78.9,0)" xlink:href="#bm"/><use transform="matrix(0.05,0,0,0.05,82.85000000000001,0)" xlink:href="#bu"/><use transform="matrix(0.05,0,0,0.05,92.85000000000001,0)" xlink:href="#bv"/><use transform="matrix(0.05,0,0,0.05,104.85000000000001,0)" xlink:href="#aV"/><use transform="matrix(0.05,0,0,0.05,114.85000000000001,0)" xlink:href="#aX"/><use transform="matrix(0.05,0,0,0.05,124.85000000000001,0)" xlink:href="#bc"/><use transform="matrix(0.05,0,0,0.05,128.8,0)" xlink:href="#aX"/><use transform="matrix(0.05,0,0,0.05,138.8,0)" xlink:href="#aZ"/><use transform="matrix(0.05,0,0,0.05,148.8,0)" xlink:href="#bq"/><use transform="matrix(0.05,0,0,0.05,154.75,0)" xlink:href="#br"/></g><g id="Y"><use transform="matrix(0.05,0,0,0.05,0,0)" xlink:href="#bD"/><use transform="matrix(0.05,0,0,0.05,5,0)" xlink:href="#bE"/><use transform="matrix(0.05,0,0,0.05,15.950000000000001,0)" xlink:href="#bF"/><use transform="matrix(0.05,0,0,0.05,21.900000000000002,0)" xlink:href="#bG"/><use transform="matrix(0.05,0,0,0.05,31.900000000000002,0)" xlink:href="#bH"/><use transform="matrix(0.05,0,0,0.05,38.900000000000006,0)" xlink:href="#bI"/><use transform="matrix(0.05,0,0,0.05,44.85000000000001,0)" xlink:href="#bJ"/><use transform="matrix(0.05,0,0,0.05,54.85,0)" xlink:href="#bK"/></g><path fill="#333" d="M140-251c81 0 123 46 123 126C263-46 219 4 140 4 59 4 17-45 17-125s42-126 123-126zm0 227c63 0 89-41 89-101s-29-99-89-99c-61 0-89 39-89 99S79-25 140-24" id="ca"/><g id="Z"><use transform="matrix(0.05,0,0,0.05,0,0)" xlink:href="#ba"/><use transform="matrix(0.05,0,0,0.05,10.5,0)" xlink:href="#ca"/><use transform="matrix(0.05,0,0,0.05,24.5,0)" xlink:href="#aY"/><use transform="matrix(0.05,0,0,0.05,30.450000000000003,0)" xlink:href="#aX"/><use transform="matrix(0.05,0,0,0.05,40.45,0)" xlink:href="#aV"/><use transform="matrix(0.05,0,0,0.05,50.45,0)" xlink:href="#aW"/><use transform="matrix(0.05,0,0,0.05,60.45,0)" xlink:href="#bp"/><use transform="matrix(0.05,0,0,0.05,70.45,0)" xlink:href="#aY"/><use transform="matrix(0.05,0,0,0.05,76.4,0)" xlink:href="#bu"/><use transform="matrix(0.05,0,0,0.05,86.4,0)" xlink:href="#bv"/><use transform="matrix(0.05,0,0,0.05,98.4,0)" xlink:href="#aZ"/><use transform="matrix(0.05,0,0,0.05,108.4,0)" xlink:href="#aY"/><use transform="matrix(0.05,0,0,0.05,114.35000000000001,0)" xlink:href="#bq"/><use transform="matrix(0.05,0,0,0.05,120.30000000000001,0)" xlink:href="#br"/></g><path fill="#333" d="M240 0l2-218c-23 76-54 145-80 218h-23L58-218 59 0H30v-248h44l77 211c21-75 51-140 76-211h43V0h-30" id="cb"/><g id="aa"><use transform="matrix(0.05,0,0,0.05,0,0)" xlink:href="#ba"/><use transform="matrix(0.05,0,0,0.05,10.5,0)" xlink:href="#cb"/><use transform="matrix(0.05,0,0,0.05,25.450000000000003,0)" xlink:href="#bc"/><use transform="matrix(0.05,0,0,0.05,29.400000000000002,0)" xlink:href="#by"/><use transform="matrix(0.05,0,0,0.05,38.400000000000006,0)" xlink:href="#bu"/><use transform="matrix(0.05,0,0,0.05,48.400000000000006,0)" xlink:href="#bv"/><use transform="matrix(0.05,0,0,0.05,60.400000000000006,0)" xlink:href="#aV"/><use transform="matrix(0.05,0,0,0.05,70.4,0)" xlink:href="#aX"/><use transform="matrix(0.05,0,0,0.05,80.4,0)" xlink:href="#bc"/><use transform="matrix(0.05,0,0,0.05,84.35000000000001,0)" xlink:href="#aX"/><use transform="matrix(0.05,0,0,0.05,94.35000000000001,0)" xlink:href="#aZ"/><use transform="matrix(0.05,0,0,0.05,104.35000000000001,0)" xlink:href="#by"/><use transform="matrix(0.05,0,0,0.05,113.35000000000001,0)" xlink:href="#bq"/><use transform="matrix(0.05,0,0,0.05,119.30000000000001,0)" xlink:href="#br"/></g><g id="ab"><use transform="matrix(0.05,0,0,0.05,0,0)" xlink:href="#ba"/><use transform="matrix(0.05,0,0,0.05,10.5,0)" xlink:href="#cb"/><use transform="matrix(0.05,0,0,0.05,25.450000000000003,0)" xlink:href="#aZ"/><use transform="matrix(0.05,0,0,0.05,35.45,0)" xlink:href="#by"/><use transform="matrix(0.05,0,0,0.05,44.45,0)" xlink:href="#bg"/><use transform="matrix(0.05,0,0,0.05,49.45,0)" xlink:href="#aY"/><use transform="matrix(0.05,0,0,0.05,55.400000000000006,0)" xlink:href="#bp"/><use transform="matrix(0.05,0,0,0.05,65.4,0)" xlink:href="#bg"/><use transform="matrix(0.05,0,0,0.05,70.4,0)" xlink:href="#bu"/><use transform="matrix(0.05,0,0,0.05,80.4,0)" xlink:href="#bv"/><use transform="matrix(0.05,0,0,0.05,92.4,0)" xlink:href="#aZ"/><use transform="matrix(0.05,0,0,0.05,102.4,0)" xlink:href="#aY"/><use transform="matrix(0.05,0,0,0.05,108.35000000000001,0)" xlink:href="#bu"/><use transform="matrix(0.05,0,0,0.05,118.35000000000001,0)" xlink:href="#bv"/><use transform="matrix(0.05,0,0,0.05,130.35000000000002,0)" xlink:href="#bp"/><use transform="matrix(0.05,0,0,0.05,140.35000000000002,0)" xlink:href="#bd"/><use transform="matrix(0.05,0,0,0.05,150.35000000000002,0)" xlink:href="#bc"/><use transform="matrix(0.05,0,0,0.05,154.3,0)" xlink:href="#aW"/><use transform="matrix(0.05,0,0,0.05,164.3,0)" xlink:href="#bp"/><use transform="matrix(0.05,0,0,0.05,174.3,0)" xlink:href="#bq"/><use transform="matrix(0.05,0,0,0.05,180.25,0)" xlink:href="#br"/></g><path fill="#333" d="M108 0H70L1-190h34L89-25l56-165h34" id="cc"/><g id="ac"><use transform="matrix(0.05,0,0,0.05,0,0)" xlink:href="#bo"/><use transform="matrix(0.05,0,0,0.05,11,0)" xlink:href="#aZ"/><use transform="matrix(0.05,0,0,0.05,21,0)" xlink:href="#bm"/><use transform="matrix(0.05,0,0,0.05,24.95,0)" xlink:href="#cc"/><use transform="matrix(0.05,0,0,0.05,33.95,0)" xlink:href="#aV"/><use transform="matrix(0.05,0,0,0.05,43.95,0)" xlink:href="#aY"/><use transform="matrix(0.05,0,0,0.05,49.900000000000006,0)" xlink:href="#bq"/><use transform="matrix(0.05,0,0,0.05,55.85,0)" xlink:href="#br"/></g></defs></g></svg>