<?xml version="1.0" encoding="UTF-8" standalone="no"?> <svg height="512pt" viewBox="0 0 512 512" width="512pt" xmlns="http://www.w3.org/2000/svg"><path d="m65.460938 91 25.539062-30v-61h-91v61l33.839844 30zm0 0" fill="#fdbf00"/><path d="m185.460938 91 25.539062-30v-61h-90v61l32.839844 30zm0 0" fill="#fdbf00"/><path d="m0 61v90l27.539062 30h63.460938v-120zm0 0" fill="#f77e00"/><path d="m211 181h-90v-120h90zm0 0" fill="#f77e00"/><path d="m512 361v151h-91l-15-17.402344-15 17.402344h-120l-14.398438-13.800781-.601562.601562-15 13.199219h-120l-13.199219-16.800781s-14.398437 16.199219-16.800781 16.800781h-91v-151s21.097656-14.699219 42.699219-30h422.101562zm0 0" fill="#daf569"/><path d="m512 361v151h-91l-15-17.402344-15 17.402344h-120l-14.398438-13.800781-.601562.601562v-167.800781h208.800781zm0 0" fill="#b9df47"/><g fill="#e3eeff"><path d="m159.320312 423.519531-53.320312-35.550781-53.320312 35.550781 16.640624 24.960938 21.679688-14.449219v77.96875h30v-77.96875l21.679688 14.449219zm0 0"/><path d="m512 211-20.699219 42.597656 20.699219 47.402344v60h-271v-279.300781l120 60v-60l151 75zm0 0"/><path d="m271 151h-271v210h61l44.375-44.375 75.625 44.375h60l30-53.835938zm0 0"/></g><path d="m512 211-20.699219 42.597656 20.699219 47.402344v60h-256v-271.800781l105 52.5v-60l151 75zm0 0" fill="#c4d9f2"/><path d="m316 226h181v60h-181zm0 0" fill="#73e6d3"/><path d="m301 211v90h211v-90zm120 30v30h-30v-30zm-90 0h30v30h-30zm151 30h-31v-30h31zm0 0" fill="#5b5555"/><path d="m181 361h-120v-150h120zm0 0" fill="#766e6e"/><path d="m91 241h60v120h-60zm0 0" fill="#73e6d3"/><path d="m309.402344 423.398438-16.804688 25.199218-21.597656-14.699218v78.101562h-30v-78.101562l-21.597656 14.699218-16.804688-25.199218 53.402344-35.398438zm0 0" fill="#e3eeff"/><path d="m459.320312 423.519531-53.320312-35.550781-53.320312 35.550781 16.640624 24.960938 21.679688-14.449219v77.96875h30v-77.96875l21.679688 14.449219zm0 0" fill="#c4d9f2"/><path d="m256 388 53.402344 35.398438-16.804688 25.199218-21.597656-14.699218v78.101562h-15zm0 0" fill="#c4d9f2"/></svg>